<svg xmlns="http://www.w3.org/2000/svg" xmlns:xlink="http://www.w3.org/1999/xlink" viewBox="0 0 172.13 277.6"><defs><style>.cls-1,.cls-21,.cls-23{fill:none;}.cls-2{fill:#efd6c9;}.cls-3{fill:#e1b39c;}.cls-4{fill:#e9c7b6;}.cls-5{fill:#e6bfab;}.cls-6{fill:#754c24;}.cls-7{fill:#fff;}.cls-8{fill:#fbb03b;}.cls-9{fill:#e7c2af;}.cls-10{fill:#d81f25;stroke:#c1272d;}.cls-10,.cls-21,.cls-23{stroke-miterlimit:10;}.cls-11{fill:#c9202d;}.cls-12{fill:#8c6239;}.cls-13{fill:#ccc;}.cls-14{fill:#b3b3b3;}.cls-15{fill:#bfbfbf;}.cls-16{fill:#ecd0c1;}.cls-17{fill:#e2b59e;}.cls-18{fill:#d79979;}.cls-19{fill:#e6e6e6;}.cls-20{fill:#eac9b8;}.cls-21{stroke:#d79979;}.cls-22{fill:#435e32;}.cls-23{stroke:#435e32;stroke-width:2px;}.cls-24{clip-path:url(#clip-path);}.cls-25{fill:#603813;}.cls-26{clip-path:url(#clip-path-2);}</style><clipPath id="clip-path"><rect class="cls-1" x="98.31" y="43.82" width="7.06" height="2.35"/></clipPath><clipPath id="clip-path-2"><rect class="cls-1" x="115.96" y="43.82" width="7.06" height="2.35"/></clipPath></defs><title>char1</title><g id="Layer_2" data-name="Layer 2"><g id="Layer_1-2" data-name="Layer 1"><rect class="cls-2" x="74.26" y="119.35" width="7.06" height="27.65" rx="2.52" ry="2.52" transform="translate(116.95 -16) rotate(45)"/><rect class="cls-2" x="151.22" y="118.15" width="7.06" height="27.65" rx="2.52" ry="2.52" transform="translate(-47.99 148.07) rotate(-45)"/><rect class="cls-3" x="61.59" y="261.3" width="11.33" height="5.25" rx="1.88" ry="1.88"/><rect class="cls-4" x="61.59" y="264.06" width="11.33" height="5.25" rx="1.88" ry="1.88"/><rect class="cls-5" x="61.59" y="266.83" width="11.33" height="5.25" rx="1.88" ry="1.88"/><rect class="cls-2" x="66.01" y="259.92" width="33.42" height="14.92" rx="5.33" ry="5.33"/><rect class="cls-2" x="61.59" y="269.59" width="11.33" height="5.25" rx="1.88" ry="1.88"/><rect class="cls-2" x="92.53" y="221.8" width="6.63" height="44.75"/><rect class="cls-6" x="61.59" y="273.18" width="37.57" height="4.42"/><rect class="cls-6" x="72.08" y="259.92" width="2.76" height="13.26"/><rect class="cls-6" x="86.45" y="259.92" width="2.76" height="13.26"/><rect class="cls-3" x="160.81" y="261.3" width="11.33" height="5.25" rx="1.88" ry="1.88" transform="translate(332.94 527.85) rotate(180)"/><rect class="cls-4" x="160.81" y="264.06" width="11.33" height="5.25" rx="1.88" ry="1.88" transform="translate(332.94 533.38) rotate(-180)"/><rect class="cls-5" x="160.81" y="266.83" width="11.33" height="5.25" rx="1.88" ry="1.88" transform="translate(332.94 538.9) rotate(-180)"/><rect class="cls-2" x="134.29" y="259.92" width="33.42" height="14.92" rx="5.33" ry="5.33" transform="translate(302.01 534.76) rotate(180)"/><rect class="cls-2" x="160.81" y="269.59" width="11.33" height="5.25" rx="1.88" ry="1.88" transform="translate(332.94 544.43) rotate(180)"/><rect class="cls-2" x="134.57" y="221.8" width="6.63" height="44.75" transform="translate(275.76 488.35) rotate(-180)"/><rect class="cls-6" x="134.57" y="273.18" width="37.57" height="4.42" transform="translate(306.7 550.78) rotate(-180)"/><rect class="cls-6" x="158.88" y="259.92" width="2.76" height="13.26" transform="translate(320.51 533.1) rotate(-180)"/><rect class="cls-6" x="144.51" y="259.92" width="2.76" height="13.26" transform="translate(291.78 533.1) rotate(-180)"/><polygon class="cls-7" points="139.33 106.18 93.77 106.18 81.2 239.14 151.9 239.14 139.33 106.18"/><rect class="cls-2" x="107.72" y="106.18" width="15.88" height="11.18"/><rect class="cls-8" x="105.37" y="106.18" width="2.35" height="11.18"/><rect class="cls-8" x="123.61" y="106.18" width="2.35" height="11.18"/><rect class="cls-8" x="114.49" y="108.24" width="2.35" height="20.59" transform="translate(-2.87 234.2) rotate(-90)"/><polygon class="cls-8" points="81.2 239.14 80.98 241.49 152.12 241.49 151.9 239.14 81.2 239.14"/><rect class="cls-7" x="82.43" y="107.95" width="15.3" height="25.3" transform="translate(111.65 -28.37) rotate(45)"/><rect class="cls-8" x="80.79" y="121.06" width="2.35" height="15.3" transform="translate(-67 95.65) rotate(-45)"/><rect class="cls-7" x="135.38" y="107.95" width="15.3" height="25.3" transform="translate(329.43 104.73) rotate(135)"/><rect class="cls-8" x="149.96" y="121.06" width="2.35" height="15.3" transform="translate(167 326.58) rotate(-135)"/><rect class="cls-2" x="46.76" y="115.56" width="6.47" height="47.07" rx="2.31" ry="2.31" transform="translate(-92.66 177.76) rotate(-85.4)"/><rect class="cls-2" x="8.39" y="122.98" width="19.48" height="24.62" rx="6.96" ry="6.96" transform="translate(154.6 132.66) rotate(96.53)"/><rect class="cls-9" x="16.87" y="119.47" width="4.1" height="13.94" rx="1.47" ry="1.47" transform="translate(-74.56 39.22) rotate(-38.47)"/><path class="cls-10" d="M121.74,106.18s3.41,26.65-33,52.74l-3.41,38.45s59,10,51.27-91.19Z"/><rect class="cls-2" x="144.52" y="129.98" width="6.47" height="47.07" rx="2.31" ry="2.31" transform="translate(143.68 366.54) rotate(-135)"/><path class="cls-11" d="M134.28,162.61c3.69,5.14,4.45,40.37,5.2,50.5a1.26,1.26,0,0,0,1.88,1l28.07-16a1.26,1.26,0,0,0,.38-1.86c-4.62-6.11-18.58-56.29-31.85-56a1.26,1.26,0,0,0-1.13.76c-2.69,6.22-23.27,51.61-49.6,49.4a1.26,1.26,0,0,0-1.36,1.14l-.4,4.55a1.26,1.26,0,0,0,1.2,1.37c6.52.32,35.48-.23,45.36-34.46A1.26,1.26,0,0,1,134.28,162.61Z"/><rect class="cls-9" x="115.92" y="162.02" width="4.1" height="13.94" rx="1.47" ry="1.47" transform="translate(-54.87 281.23) rotate(-88.08)"/><rect class="cls-2" x="110.78" y="168.32" width="4.1" height="13.94" rx="1.47" ry="1.47" transform="translate(163.8 -26.85) rotate(46.92)"/><rect class="cls-2" x="114.3" y="172.08" width="4.1" height="13.94" rx="1.47" ry="1.47" transform="translate(167.66 -28.22) rotate(46.92)"/><rect class="cls-2" x="117.81" y="175.84" width="4.1" height="13.94" rx="1.47" ry="1.47" transform="translate(171.52 -29.6) rotate(46.92)"/><rect class="cls-2" x="121.33" y="179.6" width="4.1" height="13.94" rx="1.47" ry="1.47" transform="translate(175.38 -30.98) rotate(46.92)"/><rect class="cls-2" x="114.47" y="163.01" width="19.48" height="24.62" rx="6.96" ry="6.96" transform="translate(167.43 -35.14) rotate(46.92)"/><rect class="cls-12" x="9.69" y="114.95" width="6.92" height="33.24"/><circle class="cls-13" cx="13.16" cy="152.33" r="6.23"/><circle class="cls-8" cx="13.16" cy="152.33" r="3.27"/><path class="cls-14" d="M13.16,120.49a13.16,13.16,0,0,0,13.16-13.16H0A13.16,13.16,0,0,0,13.16,120.49Z"/><path class="cls-8" d="M13.16,117.36a6.9,6.9,0,0,0,6.9-6.9H6.26A6.9,6.9,0,0,0,13.16,117.36Z"/><polygon class="cls-13" points="6.92 24.24 7.62 65.78 6.92 107.33 13.16 107.33 13.16 0 6.92 24.24"/><polygon class="cls-15" points="19.39 24.24 13.16 0 13.16 107.33 19.39 107.33 18.7 65.78 19.39 24.24"/><rect class="cls-16" x="8.73" y="119.64" width="4.1" height="13.94" rx="1.47" ry="1.47" transform="translate(137.8 130.29) rotate(96.53)"/><rect class="cls-16" x="8.15" y="124.75" width="4.1" height="13.94" rx="1.47" ry="1.47" transform="translate(142.23 136.56) rotate(96.53)"/><rect class="cls-16" x="7.56" y="129.87" width="4.1" height="13.94" rx="1.47" ry="1.47" transform="translate(146.65 142.83) rotate(96.53)"/><rect class="cls-16" x="6.98" y="134.98" width="4.1" height="13.94" rx="1.47" ry="1.47" transform="translate(151.08 149.11) rotate(96.53)"/><path class="cls-2" d="M94.78,91.81h39.33a2.52,2.52,0,0,0,2.52-2.52V18.65a2.52,2.52,0,0,0-2.52-2.52H97.72a2.52,2.52,0,0,0-2.52,2.52V78.53L92.26,89.29A2.52,2.52,0,0,0,94.78,91.81Z"/><path class="cls-17" d="M99.66,63.46l1.89-6a5.82,5.82,0,0,1,1.91-2.79l10.15-8.11V68l-10.85-.25A3.34,3.34,0,0,1,99.66,63.46Z"/><rect class="cls-7" x="128.51" y="19.11" width="10.5" height="40.57" rx="3.75" ry="3.75"/><rect class="cls-7" x="128.51" y="47.45" width="5.31" height="12.23"/><circle class="cls-9" cx="135.94" cy="44.74" r="6.82"/><circle class="cls-18" cx="135.94" cy="44.74" r="3.03"/><rect class="cls-7" x="81.02" y="13.96" width="27.17" height="15.2" rx="5.43" ry="5.43"/><rect class="cls-19" x="93.29" y="13.96" width="21.56" height="15.2" rx="5.43" ry="5.43"/><rect class="cls-19" x="93.29" y="13.96" width="10.91" height="4.58"/><rect class="cls-19" x="103.93" y="24.58" width="10.91" height="4.58"/><rect class="cls-7" x="112.16" y="2.4" width="15.09" height="38.42" rx="5.39" ry="5.39" transform="translate(98.09 141.32) rotate(-90)"/><rect class="cls-7" x="129.3" y="19.55" width="7.64" height="11.58" transform="translate(107.78 158.46) rotate(-90)"/><rect class="cls-7" x="102.47" y="12.1" width="7.64" height="11.58" transform="translate(88.4 124.17) rotate(-90)"/><rect class="cls-19" x="95.81" y="35.82" width="12.13" height="2.43" rx="0.87" ry="0.87" transform="translate(203.75 74.06) rotate(180)"/><rect class="cls-19" x="113.1" y="35.82" width="12.13" height="2.43" rx="0.87" ry="0.87" transform="translate(238.34 74.06) rotate(-180)"/><rect class="cls-20" x="105.37" y="67.94" width="8.24" height="8.82"/><rect class="cls-17" x="100.08" y="76.76" width="13.53" height="1.76"/><path class="cls-20" d="M101.84,40.29a3.53,3.53,0,0,0-3.53,3.53h7.06A3.53,3.53,0,0,0,101.84,40.29Z"/><line class="cls-21" x1="98.31" y1="43.82" x2="105.37" y2="43.82"/><path class="cls-20" d="M119.49,40.29A3.53,3.53,0,0,0,116,43.82H123A3.53,3.53,0,0,0,119.49,40.29Z"/><line class="cls-21" x1="115.96" y1="43.82" x2="123.02" y2="43.82"/><path class="cls-22" d="M132.8,28.33s0,7.18-11,5.93C121.79,34.26,126.36,26.77,132.8,28.33Z"/><path class="cls-22" d="M133.41,28.15s-6.77-2.39-2-12.35C131.42,15.8,137,22.57,133.41,28.15Z"/><path class="cls-22" d="M104.74,21.87S98.26,25,94.6,14.54C94.6,14.54,103.33,15.39,104.74,21.87Z"/><path class="cls-22" d="M111.68,21.87s-6.89,2-8.84-8.85C102.85,13,111.33,15.25,111.68,21.87Z"/><path class="cls-22" d="M119.46,22.82s-7.09,1.12-7.63-9.92C111.84,12.91,120,16.21,119.46,22.82Z"/><path class="cls-22" d="M126.32,25s-7.13-.9-4.57-11.65C121.76,13.31,128.64,18.74,126.32,25Z"/><path class="cls-22" d="M104.74,22.37s-6.48-3.1-10.14,7.32C94.6,29.7,103.33,28.85,104.74,22.37Z"/><path class="cls-22" d="M111.68,22s-6.89-2-8.84,8.85C102.85,30.83,111.33,28.6,111.68,22Z"/><path class="cls-22" d="M119.14,23.1s-6.74-2.49-9.42,8.23C109.71,31.33,118.33,29.68,119.14,23.1Z"/><path class="cls-22" d="M126,24.83s-6.67-2.67-9.64,8C116.38,32.8,125,31.38,126,24.83Z"/><path class="cls-22" d="M98.1,21.92s-2.39,6.77-12.35,2C85.75,23.91,92.52,18.33,98.1,21.92Z"/><path class="cls-23" d="M97.55,22.17s27.09-2.79,38.25,8.76"/><rect class="cls-2" x="111.25" y="90.88" width="8.24" height="15.3"/><rect class="cls-7" x="98.31" y="43.82" width="7.06" height="2.35"/><rect class="cls-7" x="115.96" y="43.82" width="7.06" height="2.35"/><g class="cls-24"><circle class="cls-25" cx="101.25" cy="44.99" r="1.76"/><circle cx="101.25" cy="44.99" r="0.88"/></g><g class="cls-26"><circle class="cls-25" cx="118.9" cy="44.99" r="1.76"/><circle cx="118.9" cy="44.99" r="0.88"/></g></g></g></svg>