<svg xmlns="http://www.w3.org/2000/svg" xmlns:xlink="http://www.w3.org/1999/xlink" viewBox="0 0 320 268.26"><defs><style>.cls-1,.cls-16{fill:none;}.cls-2{fill:#ff1d25;}.cls-3{fill:#ccc;}.cls-4{fill:#e7c2af;}.cls-5{fill:#e2b59e;}.cls-6{fill:#333;}.cls-7{fill:#1a1a1a;}.cls-8{fill:#d79979;}.cls-9{clip-path:url(#clip-path);}.cls-10{fill:#ed1e79;}.cls-11{fill:#b3b3b3;}.cls-12{fill:#999;}.cls-13{fill:#fff;}.cls-14{fill:#8c6239;}.cls-15{fill:#a67c52;}.cls-16{stroke:#603813;stroke-miterlimit:10;stroke-width:2px;}.cls-17{fill:#e1b39c;}.cls-18{fill:#e9c7b6;}.cls-19{fill:#e6bfab;}.cls-20{fill:#efd6c9;}.cls-21{fill:#754c24;}.cls-22{fill:#f22231;}.cls-23{fill:#fbb03b;}.cls-24{fill:#d81f25;}.cls-25{fill:#ffdd19;}.cls-26{fill:#6b4934;}.cls-27{fill:#b7b7b7;}.cls-28{fill:#c6c6c6;}</style><clipPath id="clip-path"><rect class="cls-1" x="172.83" y="81.97" width="6.06" height="11.02" rx="3.03" ry="3.03"/></clipPath></defs><title>char3</title><g id="Layer_2" data-name="Layer 2"><g id="Layer_1-2" data-name="Layer 1"><rect class="cls-2" x="147.32" y="101.26" width="70" height="83.78" rx="18" ry="18" transform="translate(364.64 286.29) rotate(-180)"/><rect class="cls-3" x="147.32" y="120.55" width="70" height="54.56" transform="translate(364.64 295.66) rotate(-180)"/><rect class="cls-3" x="199.13" y="101.26" width="8.27" height="19.29" transform="translate(406.53 221.81) rotate(-180)"/><rect class="cls-3" x="157.8" y="101.26" width="8.27" height="19.29" transform="translate(323.86 221.81) rotate(-180)"/><rect class="cls-4" x="155.94" y="19.75" width="53.83" height="85.36" rx="26.91" ry="26.91"/><rect class="cls-5" x="149.02" y="50.24" width="14.52" height="28.74" rx="7.26" ry="7.26" transform="translate(220.9 -91.67) rotate(90)"/><path class="cls-5" d="M176.89,100.3a11.72,11.72,0,0,0,11.72-11.72H165.18A11.72,11.72,0,0,0,176.89,100.3Z"/><rect class="cls-6" x="152" y="25.2" width="27.1" height="15.16" rx="7.58" ry="7.58"/><rect class="cls-7" x="164.24" y="25.2" width="21.51" height="15.16" rx="7.58" ry="7.58"/><rect class="cls-7" x="164.24" y="25.2" width="10.89" height="4.57"/><rect class="cls-7" x="174.86" y="35.79" width="10.89" height="4.57"/><rect class="cls-6" x="183.07" y="13.67" width="15.05" height="38.33" rx="7.53" ry="7.53" transform="translate(157.76 223.43) rotate(-90)"/><rect class="cls-6" x="200.17" y="30.78" width="7.62" height="11.56" transform="translate(167.43 240.54) rotate(-90)"/><rect class="cls-6" x="173.4" y="23.34" width="7.62" height="11.56" transform="translate(148.09 206.33) rotate(-90)"/><rect class="cls-6" x="200.94" y="31.49" width="10.47" height="40.48" rx="5.24" ry="5.24"/><rect class="cls-6" x="200.94" y="59.76" width="5.3" height="12.2"/><rect class="cls-6" x="174.69" y="42.31" width="12.1" height="2.42" rx="1.21" ry="1.21"/><rect class="cls-6" x="155.09" y="42.31" width="12.1" height="2.42" rx="1.21" ry="1.21"/><circle class="cls-4" cx="208.36" cy="57.05" r="6.81"/><circle class="cls-8" cx="208.36" cy="57.05" r="3.03"/><circle cx="175.59" cy="81.42" r="4.96"/><g class="cls-9"><circle class="cls-10" cx="175.59" cy="81.42" r="4.96"/></g><path class="cls-3" d="M212,19.55a8.35,8.35,0,0,0-8.33-8.33H180.11a8.35,8.35,0,0,0-8.33,8.33v8.17A8.35,8.35,0,0,0,180.11,36H212V27.77h0s0,0,0-.05Z"/><path class="cls-11" d="M190.69,36a36,36,0,0,0-36-36V36Z"/><polygon class="cls-3" points="198.38 63.23 186.56 63.23 188.33 36.05 196.6 36.05 198.38 63.23"/><circle class="cls-12" cx="192.47" cy="33.68" r="4.73"/><circle class="cls-13" cx="161.26" cy="51.1" r="3.86"/><circle class="cls-13" cx="180.55" cy="51.1" r="3.86"/><circle class="cls-14" cx="160.71" cy="51.55" r="2.2"/><circle cx="160.71" cy="51.55" r="1.38"/><circle class="cls-14" cx="180" cy="51.55" r="2.2"/><circle cx="180" cy="51.55" r="1.38"/><polygon class="cls-15" points="147.88 212.59 216.22 212.59 209.05 185.03 155.04 185.03 147.88 212.59"/><line class="cls-16" x1="204.09" y1="185.03" x2="204.09" y2="212.59"/><line class="cls-16" x1="193.07" y1="185.03" x2="193.07" y2="212.59"/><line class="cls-16" x1="182.05" y1="185.03" x2="182.05" y2="212.59"/><line class="cls-16" x1="171.02" y1="185.03" x2="171.02" y2="212.59"/><line class="cls-16" x1="160" y1="185.03" x2="160" y2="212.59"/><rect class="cls-17" x="213.74" y="252" width="11.3" height="5.24" rx="2.62" ry="2.62" transform="translate(438.77 509.23) rotate(180)"/><rect class="cls-18" x="213.74" y="254.76" width="11.3" height="5.24" rx="2.62" ry="2.62" transform="translate(438.77 514.75) rotate(180)"/><rect class="cls-19" x="213.74" y="257.51" width="11.3" height="5.24" rx="2.62" ry="2.62" transform="translate(438.77 520.26) rotate(-180)"/><rect class="cls-20" x="187.28" y="250.62" width="33.34" height="14.88" rx="7.44" ry="7.44" transform="translate(407.91 516.12) rotate(180)"/><rect class="cls-20" x="213.74" y="260.27" width="11.3" height="5.24" rx="2.62" ry="2.62" transform="translate(438.77 525.77) rotate(-180)"/><rect class="cls-20" x="187.56" y="212.59" width="6.61" height="44.64" transform="translate(381.73 469.83) rotate(-180)"/><rect class="cls-21" x="187.56" y="263.85" width="37.48" height="4.41" transform="translate(412.59 532.11) rotate(-180)"/><rect class="cls-21" x="211.81" y="250.62" width="2.76" height="13.23" transform="translate(426.37 514.47) rotate(-180)"/><rect class="cls-21" x="197.48" y="250.62" width="2.76" height="13.23" transform="translate(397.71 514.47) rotate(-180)"/><rect class="cls-17" x="138.23" y="252" width="11.3" height="5.24" rx="2.62" ry="2.62"/><rect class="cls-18" x="138.23" y="254.76" width="11.3" height="5.24" rx="2.62" ry="2.62"/><rect class="cls-19" x="138.23" y="257.51" width="11.3" height="5.24" rx="2.62" ry="2.62"/><rect class="cls-20" x="142.64" y="250.62" width="33.34" height="14.88" rx="7.44" ry="7.44"/><rect class="cls-20" x="138.23" y="260.27" width="11.3" height="5.24" rx="2.62" ry="2.62"/><rect class="cls-20" x="169.09" y="212.59" width="6.61" height="44.64"/><rect class="cls-21" x="138.23" y="263.85" width="37.48" height="4.41"/><rect class="cls-21" x="148.7" y="250.62" width="2.76" height="13.23"/><rect class="cls-21" x="163.03" y="250.62" width="2.76" height="13.23"/><rect class="cls-11" x="132.02" y="123.53" width="23.06" height="4.51"/><path class="cls-22" d="M132,114.75a11.56,11.56,0,0,1,11.53-11.53h0a11.56,11.56,0,0,1,11.53,11.53v8.79H132Z"/><path class="cls-20" d="M148.37,175.44c0,7.81-2.34,14.21-5.2,14.21h0c-2.86,0-5.2-6.39-5.2-14.21V128h10.41Z"/><rect class="cls-4" x="151.45" y="184.32" width="4.84" height="16.45" rx="2.42" ry="2.42" transform="translate(-91.08 165.2) rotate(-45)"/><rect class="cls-20" x="150.16" y="193.83" width="4.84" height="16.45" rx="2.42" ry="2.42" transform="translate(305.16 404.11) rotate(180)"/><rect class="cls-20" x="144.09" y="193.83" width="4.84" height="16.45" rx="2.42" ry="2.42" transform="translate(293.01 404.11) rotate(-180)"/><rect class="cls-20" x="138.01" y="193.83" width="4.84" height="16.45" rx="2.42" ry="2.42" transform="translate(280.86 404.11) rotate(180)"/><rect class="cls-20" x="131.94" y="193.83" width="4.84" height="16.45" rx="2.42" ry="2.42" transform="translate(268.72 404.11) rotate(180)"/><rect class="cls-20" x="131.89" y="177.75" width="22.99" height="29.06" rx="11.49" ry="11.49" transform="translate(286.77 384.55) rotate(-180)"/><rect class="cls-23" x="74.02" y="108.61" width="90.39" height="132.68" transform="translate(238.43 349.9) rotate(-180)"/><rect class="cls-24" x="77.79" y="114.13" width="82.86" height="121.63" transform="translate(238.43 349.9) rotate(-180)"/><rect class="cls-23" x="106.74" y="162.47" width="24.95" height="24.95" transform="translate(238.43 349.9) rotate(-180)"/><circle class="cls-25" cx="119.21" cy="174.95" r="7.89"/><rect class="cls-25" x="146.99" y="123.52" width="4.24" height="19.77" transform="translate(298.22 266.8) rotate(-180)"/><rect class="cls-25" x="139.22" y="115.75" width="4.24" height="19.77" transform="translate(15.71 266.98) rotate(-90)"/><rect class="cls-25" x="139.22" y="214.14" width="4.24" height="19.77" transform="translate(-82.69 365.37) rotate(-90)"/><rect class="cls-25" x="146.99" y="206.37" width="4.24" height="19.77"/><rect class="cls-25" x="87.2" y="206.37" width="4.24" height="19.77"/><rect class="cls-25" x="94.97" y="214.14" width="4.24" height="19.77" transform="translate(321.11 126.94) rotate(90)"/><rect class="cls-25" x="94.97" y="115.75" width="4.24" height="19.77" transform="translate(222.72 28.55) rotate(90)"/><rect class="cls-25" x="87.2" y="123.52" width="4.24" height="19.77" transform="translate(178.64 266.8) rotate(-180)"/><rect class="cls-26" x="184.42" y="66.1" width="6.61" height="264.55" transform="translate(386.1 10.65) rotate(90)"/><polygon class="cls-26" points="71.43 204.71 71.43 192.03 55.45 193.39 55.45 203.35 71.43 204.71"/><rect class="cls-11" x="45.53" y="192.03" width="6.61" height="13.23" transform="translate(247.48 149.82) rotate(90)"/><path class="cls-27" d="M34.24,187.23l2.1-.7h.28c3.88,0,7,5.43,7,12.13H0Z"/><path class="cls-28" d="M36.62,210.77h-.28l-2.1-.7L0,198.65H43.65C43.65,205.34,40.5,210.77,36.62,210.77Z"/><rect class="cls-11" x="208.21" y="123.51" width="23.06" height="4.51"/><path class="cls-22" d="M231.27,114.72a11.56,11.56,0,0,0-11.53-11.53h0a11.56,11.56,0,0,0-11.53,11.53v8.79h23.06Z"/><path class="cls-20" d="M214.91,175.41c0,7.81,2.34,14.21,5.2,14.21h0c2.86,0,5.2-6.39,5.2-14.21V128H214.91Z"/><rect class="cls-4" x="201.19" y="190.1" width="16.45" height="4.84" rx="2.42" ry="2.42" transform="translate(-74.79 204.47) rotate(-45)"/><rect class="cls-20" x="208.29" y="193.8" width="4.84" height="16.45" rx="2.42" ry="2.42"/><rect class="cls-20" x="214.36" y="193.8" width="4.84" height="16.45" rx="2.42" ry="2.42"/><rect class="cls-20" x="220.44" y="193.8" width="4.84" height="16.45" rx="2.42" ry="2.42"/><rect class="cls-20" x="226.51" y="193.8" width="4.84" height="16.45" rx="2.42" ry="2.42"/><rect class="cls-20" x="208.41" y="177.72" width="22.99" height="29.06" rx="11.49" ry="11.49"/></g></g></svg>