<svg xmlns="http://www.w3.org/2000/svg" viewBox="0 0 220.97 263.18"><defs><style>.cls-1{fill:#f7931e;}.cls-2{fill:#efd6c9;}.cls-3{fill:#e1b39c;}.cls-4{fill:#00a99d;}.cls-5{fill:#e9c7b6;}.cls-6{fill:#e6bfab;}.cls-7{fill:#e7c2af;}.cls-8{fill:#eac9b8;}.cls-9{fill:#754c24;}.cls-10{fill:#f79c7b;}.cls-11{fill:#d79979;}.cls-12{fill:#f5fff7;}.cls-13{fill:#f15a24;}.cls-14{fill:#e03f0e;}.cls-15,.cls-16,.cls-19{fill:#fff;}.cls-15{stroke:#4d4d4d;stroke-width:0.25px;}.cls-15,.cls-16{stroke-miterlimit:10;}.cls-16{stroke:#000;}.cls-17{fill:#ccc;}.cls-18{fill:#e6e6e6;}.cls-20{fill:#0071bc;}</style></defs><title>char2</title><g id="Layer_2" data-name="Layer 2"><g id="Layer_1-2" data-name="Layer 1"><rect class="cls-1" x="153.84" y="239.13" width="10.49" height="4.62"/><rect class="cls-2" x="156.36" y="243.74" width="5.45" height="10.91"/><rect class="cls-3" x="156.36" y="243.74" width="5.45" height="2.1"/><path class="cls-4" d="M162.1,179.07a3,3,0,0,0-6,0v16.59h6Z"/><rect class="cls-2" x="156.07" y="195.66" width="6.03" height="43.47"/><rect class="cls-3" x="126.82" y="250.65" width="10.49" height="4.86" rx="1.77" ry="1.77"/><rect class="cls-5" x="126.82" y="253.2" width="10.49" height="4.86" rx="1.77" ry="1.77"/><rect class="cls-6" x="126.82" y="255.76" width="10.49" height="4.86" rx="1.77" ry="1.77"/><rect class="cls-2" x="130.91" y="249.37" width="30.95" height="13.81" rx="5.02" ry="5.02"/><rect class="cls-2" x="126.82" y="258.32" width="10.49" height="4.86" rx="1.77" ry="1.77"/><path class="cls-4" d="M182.7,179.07a3,3,0,0,0-6,0v16.59h6Z"/><rect class="cls-2" x="176.67" y="195.66" width="6.03" height="43.47"/><rect class="cls-1" x="174.5" y="239.13" width="10.49" height="4.62"/><rect class="cls-2" x="177.02" y="243.74" width="5.45" height="10.91"/><rect class="cls-3" x="177.02" y="243.74" width="5.45" height="2.1"/><rect class="cls-3" x="201.64" y="250.65" width="10.49" height="4.86" rx="1.77" ry="1.77" transform="translate(413.76 506.15) rotate(180)"/><rect class="cls-5" x="201.64" y="253.2" width="10.49" height="4.86" rx="1.77" ry="1.77" transform="translate(413.76 511.26) rotate(-180)"/><rect class="cls-6" x="201.64" y="255.76" width="10.49" height="4.86" rx="1.77" ry="1.77" transform="translate(413.76 516.38) rotate(180)"/><rect class="cls-2" x="177.09" y="249.37" width="30.95" height="13.81" rx="5.02" ry="5.02" transform="translate(385.12 512.54) rotate(180)"/><rect class="cls-2" x="201.64" y="258.32" width="10.49" height="4.86" rx="1.77" ry="1.77" transform="translate(413.76 521.49) rotate(-180)"/><path class="cls-7" d="M112.78,192.08c0,10.17,6.75,18.48,15,18.48h0c8.25,0,15-8.32,15-18.48V130.43h-30Z"/><circle class="cls-8" cx="126.31" cy="192.63" r="11.64"/><rect class="cls-8" x="103.55" y="188.96" width="21.4" height="6.29" rx="2.29" ry="2.29" transform="translate(-102.37 137.05) rotate(-45)"/><path class="cls-9" d="M141.17,205.65H109.46L12.79,219.21c-2.53,0-9.72-2.07-9.72-4.6L0,199.77,3.07,186c0-2.53,7.19-4.6,9.72-4.6l96.42,13.55h32a4.62,4.62,0,0,1,4.6,4.6V201A4.62,4.62,0,0,1,141.17,205.65Z"/><rect class="cls-7" x="112.78" y="193.78" width="6.29" height="21.4" rx="2.29" ry="2.29"/><rect class="cls-7" x="120.68" y="193.78" width="6.29" height="21.4" rx="2.29" ry="2.29"/><rect class="cls-7" x="128.59" y="193.78" width="6.29" height="21.4" rx="2.29" ry="2.29"/><rect class="cls-7" x="136.49" y="193.78" width="6.29" height="21.4" rx="2.29" ry="2.29"/><path class="cls-7" d="M142.68,113.12a15,15,0,0,0-15-15h0a15,15,0,0,0-15,15v11.43h30Z"/><rect class="cls-1" x="112.68" y="124.55" width="30" height="5.87"/><rect class="cls-1" x="109.64" y="124.55" width="3.04" height="5.87"/><rect class="cls-1" x="142.67" y="124.55" width="3.04" height="5.87"/><rect class="cls-3" x="112.79" y="130.45" width="30" height="2.31"/><rect class="cls-4" x="149.86" y="144.85" width="38.81" height="38.81" rx="14.11" ry="14.11"/><circle class="cls-8" cx="167.37" cy="124.82" r="44.16"/><rect class="cls-7" x="178.39" y="188.91" width="21.4" height="6.29" rx="2.29" ry="2.29" transform="translate(-80.42 189.96) rotate(-45)"/><rect class="cls-2" x="187.62" y="193.73" width="6.29" height="21.4" rx="2.29" ry="2.29"/><rect class="cls-2" x="195.52" y="193.73" width="6.29" height="21.4" rx="2.29" ry="2.29"/><rect class="cls-2" x="203.42" y="193.73" width="6.29" height="21.4" rx="2.29" ry="2.29"/><rect class="cls-2" x="211.32" y="193.73" width="6.29" height="21.4" rx="2.29" ry="2.29"/><path class="cls-2" d="M187.62,192c0,10.17,6.75,18.48,15,18.48h0c8.25,0,15-8.32,15-18.48V130.38h-30Z"/><rect class="cls-1" x="184.47" y="124.51" width="3.04" height="5.87"/><rect class="cls-1" x="217.51" y="124.51" width="3.46" height="5.87"/><rect class="cls-1" x="187.51" y="124.51" width="30" height="5.87"/><rect class="cls-3" x="187.41" y="130.38" width="30" height="2.31"/><rect class="cls-10" x="200.41" y="168.77" width="14.6" height="1.03" rx="0.37" ry="0.37"/><rect class="cls-10" x="200.41" y="171.08" width="14.6" height="1.03" rx="0.37" ry="0.37"/><rect class="cls-10" x="200.41" y="173.4" width="14.6" height="1.03" rx="0.37" ry="0.37"/><rect class="cls-10" x="200.41" y="175.71" width="14.6" height="1.03" rx="0.37" ry="0.37"/><rect class="cls-10" x="200.41" y="178.02" width="14.6" height="1.03" rx="0.37" ry="0.37"/><path class="cls-2" d="M217.51,113.07a15,15,0,0,0-15-15h0a15,15,0,0,0-15,15v11.43h30Z"/><rect class="cls-7" x="138.69" y="19.8" width="39.65" height="69.86" rx="14.42" ry="14.42"/><rect class="cls-11" x="145.74" y="40.94" width="10.07" height="19.93" rx="3.66" ry="3.66"/><path class="cls-11" d="M150.23,82.48a14.68,14.68,0,0,0,14.68-14.68H135.54A14.68,14.68,0,0,0,150.23,82.48Z"/><rect class="cls-12" x="136.59" y="66.12" width="26.64" height="1.68"/><rect class="cls-13" x="135.96" y="19.16" width="18.79" height="14.93" rx="5.43" ry="5.43"/><rect class="cls-13" x="145.24" y="29.44" width="9.51" height="4.66"/><rect class="cls-14" x="144.45" y="19.16" width="14.91" height="14.93" rx="5.42" ry="5.42"/><rect class="cls-14" x="144.45" y="19.16" width="7.55" height="4.5"/><rect class="cls-14" x="151.81" y="29.59" width="7.55" height="4.5"/><rect class="cls-13" x="156.06" y="12.65" width="14.82" height="28.06" rx="5.39" ry="5.39" transform="translate(136.78 190.15) rotate(-90)"/><rect class="cls-13" x="169.52" y="26.11" width="7.5" height="8.46" transform="translate(142.93 203.61) rotate(-90)"/><rect class="cls-13" x="149.91" y="18.79" width="7.5" height="8.46" transform="translate(130.64 176.69) rotate(-90)"/><rect class="cls-13" x="155.51" y="39.26" width="8.39" height="1.68" rx="0.61" ry="0.61"/><rect class="cls-13" x="138.1" y="39.26" width="8.39" height="1.68" rx="0.61" ry="0.61"/><rect class="cls-13" x="178.31" y="30.43" width="2.5" height="21.11" transform="translate(-3.09 64.68) rotate(-20.25)"/><rect class="cls-1" x="182.59" y="50.77" width="2.5" height="3.61" transform="translate(-6.84 66.88) rotate(-20.25)"/><polygon class="cls-13" points="187.86 57.46 184.21 58.81 183.29 54.7 185.63 53.84 187.86 57.46"/><circle class="cls-7" cx="178.86" cy="45.66" r="4.72"/><circle class="cls-11" cx="178.86" cy="45.66" r="2.1"/><path class="cls-15" d="M147.22,13.73l.82.82.07.07.52.52.71-.71.1-.1,12-12a.9.9,0,0,0,.19-1.23l-.89-.89Z"/><path class="cls-16" d="M148.64,15.15l.82.82.07.07.52.52.63-.63.09-.09L161.46,5.15A.83.83,0,0,0,161.57,4l-.89-.89Z"/><path class="cls-16" d="M150.06,16.56l.82.82.07.07.52.52.54-.54.08-.08,9.25-9.25a.76.76,0,0,0,0-1.07l-.89-.89Z"/><path class="cls-17" d="M174.54,24.75c0-.22,0-.44,0-.66,0-12.67-8-22.94-17.86-22.94S138.84,11.43,138.84,24.1c0,.22,0,.44,0,.66Z"/><rect class="cls-18" x="138.84" y="22.46" width="35.72" height="2.29"/><circle class="cls-15" cx="166.69" cy="14.92" r="4.26"/><path class="cls-15" d="M163.61,13.73l.82.82.07.07.52.52.71-.71.1-.1,12-12a.9.9,0,0,0,.19-1.23l-.89-.89Z"/><path class="cls-15" d="M165,15.15l.82.82.07.07.52.52.63-.63.09-.09L177.85,5.15A.83.83,0,0,0,178,4l-.89-.89Z"/><path class="cls-15" d="M166.44,16.56l.82.82.07.07.52.52.54-.54.08-.08,9.25-9.25a.76.76,0,0,0,0-1.07l-.89-.89Z"/><path class="cls-13" d="M135.57,69.8V85c0,2.47,2.29,4.48,5.11,4.48h32.48c2.82,0,5.11-2,5.11-4.48V69.8Z"/><rect class="cls-13" x="147.84" y="88.21" width="7.42" height="5.37"/><rect class="cls-13" x="147.84" y="103.81" width="7.42" height="5.63"/><polygon class="cls-13" points="146.56 117.11 156.54 117.11 155.26 111.49 147.84 111.49 146.56 117.11"/><rect class="cls-13" x="147.84" y="95.63" width="7.42" height="6.14"/><rect class="cls-1" x="147.84" y="93.59" width="7.42" height="2.05"/><rect class="cls-1" x="147.84" y="101.77" width="7.42" height="2.05"/><rect class="cls-1" x="147.84" y="109.44" width="7.42" height="2.05"/><path class="cls-19" d="M162.37,50.59V45.12a2.43,2.43,0,0,0-4.86,0v5.47Z"/><circle class="cls-20" cx="159.94" cy="46.64" r="1.92"/><circle cx="159.94" cy="46.64" r="1.41"/><path class="cls-19" d="M144.21,50.59V45.12a2.43,2.43,0,0,0-4.86,0v5.47Z"/><circle class="cls-20" cx="141.78" cy="46.64" r="1.92"/><circle cx="141.78" cy="46.64" r="1.41"/><rect class="cls-13" x="151.63" y="61.62" width="16.88" height="2.56"/><rect class="cls-13" x="135.77" y="61.62" width="13.81" height="2.56"/></g></g></svg>