<svg xmlns="http://www.w3.org/2000/svg" viewBox="0 0 240 240"><defs><style>.cls-1{fill:#e6e6e6;}.cls-2{fill:#f2f2f2;}.cls-3{fill:#333;}.cls-4{fill:#01a89e;}</style></defs><title>Fall_Rome</title><g id="Layer_2" data-name="Layer 2"><g id="Intro_Rome" data-name="Intro Rome"><rect class="cls-1" x="49.5" y="162" width="141" height="13"/><rect class="cls-1" x="54.5" y="128" width="131" height="6"/><rect class="cls-1" x="54.5" y="99" width="131" height="6"/><rect class="cls-1" x="54.5" y="65" width="67" height="6"/><rect class="cls-2" x="57.5" y="134" width="125" height="28"/><rect class="cls-2" x="57.5" y="105" width="125" height="23"/><rect class="cls-2" x="57.5" y="71" width="62" height="28"/><path class="cls-3" d="M89.7,139a5.5,5.5,0,0,0-5.5,5.5V161h11V144.5A5.5,5.5,0,0,0,89.7,139Z"/><path class="cls-3" d="M109.9,139a5.5,5.5,0,0,0-5.5,5.5V161h11V144.5A5.5,5.5,0,0,0,109.9,139Z"/><path class="cls-3" d="M130.1,139a5.5,5.5,0,0,0-5.5,5.5V161h11V144.5A5.5,5.5,0,0,0,130.1,139Z"/><path class="cls-3" d="M150.3,139a5.5,5.5,0,0,0-5.5,5.5V161h11V144.5A5.5,5.5,0,0,0,150.3,139Z"/><path class="cls-3" d="M170.5,139a5.5,5.5,0,0,0-5.5,5.5V161h11V144.5A5.5,5.5,0,0,0,170.5,139Z"/><path class="cls-3" d="M69.5,139a5.5,5.5,0,0,0-5.5,5.5V161H75V144.5A5.5,5.5,0,0,0,69.5,139Z"/><path class="cls-3" d="M68.5,109a4,4,0,0,0-4,4v14h8V113A4,4,0,0,0,68.5,109Z"/><path class="cls-3" d="M81.5,109a4,4,0,0,0-4,4v14h8V113A4,4,0,0,0,81.5,109Z"/><path class="cls-3" d="M94.5,109a4,4,0,0,0-4,4v14h8V113A4,4,0,0,0,94.5,109Z"/><path class="cls-3" d="M107.5,109a4,4,0,0,0-4,4v14h8V113A4,4,0,0,0,107.5,109Z"/><path class="cls-3" d="M120.5,109a4,4,0,0,0-4,4v14h8V113A4,4,0,0,0,120.5,109Z"/><path class="cls-3" d="M133.5,109a4,4,0,0,0-4,4v14h8V113A4,4,0,0,0,133.5,109Z"/><path class="cls-3" d="M146.5,109a4,4,0,0,0-4,4v14h8V113A4,4,0,0,0,146.5,109Z"/><path class="cls-3" d="M159.5,109a4,4,0,0,0-4,4v14h8V113A4,4,0,0,0,159.5,109Z"/><path class="cls-3" d="M172.5,109a4,4,0,0,0-4,4v14h8V113A4,4,0,0,0,172.5,109Z"/><path class="cls-3" d="M71.45,83a3.48,3.48,0,0,0-6.9,0H64.5V98h7V83Z"/><path class="cls-3" d="M82.7,83a3.48,3.48,0,0,0-6.9,0h-.05V98h7V83Z"/><path class="cls-3" d="M93.95,83a3.48,3.48,0,0,0-6.9,0H87V98h7V83Z"/><path class="cls-3" d="M105.2,83a3.48,3.48,0,0,0-6.9,0h-.05V98h7V83Z"/><path class="cls-3" d="M116.45,83a3.48,3.48,0,0,0-6.9,0h-.05V98h7V83Z"/><path class="cls-4" d="M120,9a111,111,0,0,1,78.49,189.49,111,111,0,1,1-157-157A110.27,110.27,0,0,1,120,9m0-9A120,120,0,1,0,240,120,120,120,0,0,0,120,0Z"/></g></g></svg>