<svg xmlns="http://www.w3.org/2000/svg" viewBox="0 0 240 240"><defs><style>.cls-1{fill:#fff;}.cls-2{fill:#255184;}.cls-3{fill:#c69e93;}.cls-4{fill:#c6907f;}.cls-5{fill:#e6e6e6;}.cls-6{fill:#ccc;}.cls-7{fill:none;stroke:#c6907f;stroke-miterlimit:10;stroke-width:5px;}</style></defs><title>Families</title><g id="Layer_2" data-name="Layer 2"><g id="Greek_states" data-name="Greek states"><path class="cls-1" d="M120,235A115,115,0,1,1,235,120,115.13,115.13,0,0,1,120,235Z"/><path class="cls-2" d="M120,10a110,110,0,0,1,77.78,187.78A110,110,0,1,1,42.22,42.22,109.28,109.28,0,0,1,120,10m0-10A120,120,0,1,0,240,120,120,120,0,0,0,120,0Z"/><path class="cls-3" d="M112.56,186.5,97.3,184.32s-25.44-22.53-24.71-77.77l24-17.44S106,68,90,53.5h22.53Z"/><path class="cls-4" d="M112.56,186.5l15.26-2.18s25.44-22.53,24.71-77.77l-24-17.44S119.1,68,135.09,53.5H112.56Z"/><path class="cls-5" d="M111.1,182.14l-12.36-1.45S82,159.61,77.67,125.45C77.67,125.45,91.48,164.7,111.1,182.14Z"/><path class="cls-5" d="M112.56,55.68H94.39s3.63,3.63,4.36,7.27h13.81Z"/><path class="cls-6" d="M112.56,55.68h18.17s-3.63,3.63-4.36,7.27H112.56Z"/><circle class="cls-7" cx="146.35" cy="82.21" r="21.08"/></g></g></svg>