<?xml version="1.0" encoding="UTF-8"?>
<svg width="50px" height="68px" viewBox="0 0 50 68" version="1.1" xmlns="http://www.w3.org/2000/svg" xmlns:xlink="http://www.w3.org/1999/xlink">
    <!-- Generator: Sketch 47.1 (45422) - http://www.bohemiancoding.com/sketch -->
    <title>Group 10</title>
    <desc>Created with Sketch.</desc>
    <defs>
        <polygon id="path-1" points="0.498490597 25.0260837 0.498490597 49.6571596 49.7608372 49.6571596 49.7608372 25.0260837 49.7608372 0.395007738 0.498490597 0.395007738"></polygon>
    </defs>
    <g id="Page-1" stroke="none" stroke-width="1" fill="none" fill-rule="evenodd">
        <g id="Course-Name-page2-Desktop-Copy-3" transform="translate(-745.000000, -1148.000000)">
            <g id="Group-10" transform="translate(745.000000, 1148.000000)">
                <g id="Sports">
                    <mask id="mask-2" fill="white">
                        <use xlink:href="#path-1"></use>
                    </mask>
                    <g id="Clip-2"></g>
                    <path d="M25.1296639,2.34259794 C12.6222396,2.34259794 2.4460808,12.5187568 2.4460808,25.026181 C2.4460808,37.5336053 12.6222396,47.7097642 25.1296639,47.7097642 C37.6370882,47.7097642 47.813247,37.5336053 47.813247,25.026181 C47.813247,12.5187568 37.6370882,2.34259794 25.1296639,2.34259794 M25.1296639,49.6573544 C11.5471698,49.6573544 0.498490597,38.6086751 0.498490597,25.026181 C0.498490597,11.4456346 11.5471698,0.395007738 25.1296639,0.395007738 C38.712158,0.395007738 49.7608372,11.4456346 49.7608372,25.026181 C49.7608372,38.6086751 38.712158,49.6573544 25.1296639,49.6573544" id="Fill-1" fill="#2A2A2A" mask="url(#mask-2)"></path>
                    <polygon id="Fill-4" mask="url(#mask-2)" points="27.6895765 18.4614387 19.4025802 20.7634904 19.0305904 29.3562583 27.0877711 32.3672328 32.4378014 25.6324659"></polygon>
                    <path d="M20.0334046,28.6921301 L26.766224,31.206469 L31.2359435,25.5798809 L27.2687022,19.5890935 L20.3450191,21.511365 L20.0334046,28.6921301 Z M27.4108763,33.526049 L18.0273867,30.0203866 L18.4597517,20.0136681 L28.1100612,17.333784 L33.6412174,25.6831032 L27.4108763,33.526049 Z" id="Fill-6" fill="#2A2A2A" mask="url(#mask-2)"></path>
                    <path d="M2.42037261,20.344369 C2.04838288,20.344369 1.69002628,20.130134 1.53032389,19.7659347 C1.31024619,19.2751419 1.53227148,18.6986552 2.02306421,18.4805251 L9.23499073,15.2708965 L8.40921249,7.42016036 C8.35273237,6.88457306 8.74225041,6.40546587 9.27589013,6.34898575 C9.80952984,6.28666286 10.2905846,6.68007609 10.3451172,7.21566339 L11.2449038,15.767532 C11.2896984,16.1882115 11.0579352,16.5874675 10.6723123,16.760803 L2.81573342,20.2606226 C2.68719247,20.3171027 2.55280874,20.344369 2.42037261,20.344369" id="Fill-8" fill="#2A2A2A" mask="url(#mask-2)"></path>
                    <path d="M31.2472395,10.8784963 C30.8966733,10.8784963 30.5675305,10.68958 30.394195,10.3740704 L26.2399851,2.8446867 C25.979008,2.37531746 26.1503959,1.78130244 26.6217128,1.52227295 C27.0930296,1.25934827 27.6831494,1.43073621 27.9460741,1.90594822 L31.7575081,8.81405067 L39.5108647,7.32609176 C40.0347665,7.22092188 40.5469827,7.56954053 40.650205,8.09733748 C40.7514797,8.62708201 40.4067562,9.13540306 39.8770117,9.23862534 L31.430313,10.860968 C31.3699377,10.8726535 31.3076148,10.8784963 31.2472395,10.8784963" id="Fill-10" fill="#2A2A2A" mask="url(#mask-2)"></path>
                    <path d="M46.8326353,34.7117419 C46.5171257,34.7117419 46.2074589,34.5578823 46.0204902,34.2754817 L41.2703177,27.1064021 C41.0366069,26.7538883 41.0560828,26.2923094 41.3190075,25.9612191 L46.6709854,19.2283998 C47.0059709,18.8096679 47.6175142,18.737607 48.0401413,19.0725926 C48.4608208,19.4075781 48.530934,20.0191214 48.1959485,20.4417485 L43.284126,26.6195046 L47.6447805,33.2004119 C47.9408142,33.6483576 47.818116,34.2540582 47.3701702,34.5500919 C47.2046251,34.659157 47.0176564,34.7117419 46.8326353,34.7117419" id="Fill-12" fill="#2A2A2A" mask="url(#mask-2)"></path>
                    <path d="M13.5981771,45.0107936 C13.1054367,45.0107936 12.6828097,44.6407515 12.6302247,44.1382732 L11.8063941,36.2875371 L4.08419892,34.6476662 C3.55834957,34.5347059 3.22336405,34.0166469 3.33437669,33.4927452 C3.44733693,32.9649482 3.96344833,32.6358055 4.48929768,32.7409754 L12.9028874,34.5288632 C13.3157765,34.6165047 13.6254433,34.9612282 13.6682903,35.3819077 L14.568077,43.9357239 C14.6226095,44.4713112 14.2350391,44.9504184 13.7013993,45.0049509 C13.6663427,45.0088461 13.6332337,45.0107936 13.5981771,45.0107936" id="Fill-14" fill="#2A2A2A" mask="url(#mask-2)"></path>
                    <path d="M23.0613231,49.0313989 C22.8217695,49.0313989 22.5841635,48.9437573 22.3952473,48.7684742 C22.0037816,48.4023272 21.9823581,47.7829935 22.3504527,47.3915279 L28.2282799,41.1144447 C28.5165233,40.8047778 28.9683642,40.7210315 29.3520395,40.8963146 L37.1404527,44.5460986 C37.6273502,44.7739667 37.83769,45.3543486 37.6098219,45.8412461 C37.3819539,46.3281437 36.8054672,46.540431 36.3146744,46.3125629 L29.1670184,42.9607602 L23.7721935,48.7236796 C23.5813297,48.9281766 23.3203526,49.0313989 23.0613231,49.0313989" id="Fill-16" fill="#2A2A2A" mask="url(#mask-2)"></path>
                    <path d="M27.6895765,19.4352338 C27.5649307,19.4352338 27.4383373,19.4099152 27.3156392,19.3612254 C26.8190037,19.1508857 26.5833452,18.5841369 26.7897898,18.0875014 L30.3480371,9.52979007 C30.5544817,9.03510216 31.1270732,8.80333893 31.6217611,9.00588831 C32.116449,9.21233287 32.354055,9.78102921 32.1476104,10.2796123 L28.5893631,18.8353761 C28.4335559,19.2093134 28.0713042,19.4352338 27.6895765,19.4352338" id="Fill-18" fill="#2A2A2A" mask="url(#mask-2)"></path>
                    <path d="M19.4010221,21.7367012 C19.2452149,21.7367012 19.0874601,21.699697 18.9413908,21.6198458 L9.81693069,16.7294468 C9.34171868,16.4762601 9.16448797,15.8841926 9.4176747,15.4109282 C9.67280901,14.9376638 10.2609813,14.7526427 10.7361933,15.0136198 L19.862601,19.9059664 C20.3358654,20.1572055 20.5150437,20.749273 20.2599094,21.2225374 C20.0846262,21.5497325 19.7476931,21.7367012 19.4010221,21.7367012" id="Fill-20" fill="#2A2A2A" mask="url(#mask-2)"></path>
                    <path d="M12.700338,36.4558089 C12.4452037,36.4558089 12.1920169,36.3564818 12.0011531,36.1597752 C11.6272158,35.7722048 11.6369537,35.1567663 12.0225766,34.7828289 L18.3522448,28.6557102 C18.7398152,28.285668 19.3552537,28.2934584 19.729191,28.6790812 C20.1031283,29.0647041 20.0933904,29.6801426 19.7077675,30.0560275 L13.3780994,36.1811987 C13.1872355,36.3642722 12.9437868,36.4558089 12.700338,36.4558089" id="Fill-22" fill="#2A2A2A" mask="url(#mask-2)"></path>
                    <path d="M28.9381766,42.7531471 C28.4824404,42.7531471 28.0753941,42.4317947 27.9838574,41.9682682 L26.1316991,32.5555648 C26.0284768,32.0258202 26.3712527,31.513604 26.8990496,31.4123293 C27.4307417,31.2993691 27.9390628,31.6518829 28.0442326,32.1777323 L29.8944433,41.5904357 C29.9976656,42.1201803 29.6548897,42.6323965 29.1270928,42.7336712 C29.0628223,42.7473043 29.0004994,42.7531471 28.9381766,42.7531471" id="Fill-24" fill="#2A2A2A" mask="url(#mask-2)"></path>
                    <path d="M42.0826576,27.541299 C42.0514962,27.541299 42.0203347,27.5393514 41.9872257,27.5374039 L32.3447066,26.6025606 C31.8091193,26.548028 31.4176536,26.072816 31.4702386,25.5391763 C31.5208759,25.0016414 31.98635,24.6354945 32.5336228,24.6608131 L42.1761419,25.597604 C42.7117292,25.6501889 43.1031949,26.125401 43.0506099,26.6609883 C43.0019202,27.1654141 42.5773455,27.541299 42.0826576,27.541299" id="Fill-26" fill="#2A2A2A" mask="url(#mask-2)"></path>
                </g>
                <text id="Game" font-family="AvenirNext-Medium, Avenir Next" font-size="14" font-weight="400" letter-spacing="0.0381111093" fill="#2A2A2A">
                    <tspan x="5" y="67">Game</tspan>
                </text>
            </g>
        </g>
    </g>
</svg>