<svg xmlns="http://www.w3.org/2000/svg" viewBox="0 0 240 240"><defs><style>.cls-1{fill:#ccc;}.cls-2{fill:#e6e6e6;}.cls-3{fill:#01a89e;}</style></defs><title>Greek_city_states</title><g id="Layer_2" data-name="Layer 2"><g id="Greek_states" data-name="Greek states"><rect class="cls-1" x="56.5" y="178.5" width="127" height="8"/><rect class="cls-1" x="56.5" y="90.5" width="127" height="8"/><rect class="cls-2" x="62.5" y="171.5" width="115" height="7"/><rect class="cls-2" x="62.5" y="98.5" width="115" height="7"/><rect class="cls-1" x="67.5" y="166.5" width="105" height="5"/><rect class="cls-1" x="67.5" y="105.5" width="105" height="5"/><polygon class="cls-2" points="79.5 110.5 70.5 110.5 67.5 166.5 82.5 166.5 79.5 110.5"/><polygon class="cls-2" points="108.5 110.5 99.5 110.5 96.5 166.5 111.5 166.5 108.5 110.5"/><polygon class="cls-2" points="139.5 110.5 130.5 110.5 127.5 166.5 142.5 166.5 139.5 110.5"/><polygon class="cls-2" points="169.5 110.5 160.5 110.5 157.5 166.5 172.5 166.5 169.5 110.5"/><polygon class="cls-2" points="120.1 53.5 56.7 91 183.5 91 120.1 53.5"/><polygon class="cls-1" points="120.1 60.83 75.3 87.33 164.9 87.33 120.1 60.83"/><path class="cls-3" d="M120,9a111,111,0,0,1,78.49,189.49,111,111,0,1,1-157-157A110.27,110.27,0,0,1,120,9m0-9A120,120,0,1,0,240,120,120,120,0,0,0,120,0Z"/></g></g></svg>