<svg xmlns="http://www.w3.org/2000/svg" viewBox="0 0 240 240"><defs><style>.cls-1{fill:#fff;}.cls-2{fill:#f4c66a;}.cls-3{fill:#ccc;}.cls-4{fill:#e6e6e6;}</style></defs><title>Greek_city_states2</title><g id="Layer_2" data-name="Layer 2"><g id="Greek_states" data-name="Greek states"><path class="cls-1" d="M120,235A115,115,0,1,1,235,120,115.13,115.13,0,0,1,120,235Z"/><path class="cls-2" d="M120,10a110,110,0,0,1,77.78,187.78A110,110,0,1,1,42.22,42.22,109.28,109.28,0,0,1,120,10m0-10A120,120,0,1,0,240,120,120,120,0,0,0,120,0Z"/><rect class="cls-3" x="56.5" y="178.5" width="127" height="8"/><rect class="cls-3" x="56.5" y="90.5" width="127" height="8"/><rect class="cls-4" x="62.5" y="171.5" width="115" height="7"/><rect class="cls-4" x="62.5" y="98.5" width="115" height="7"/><rect class="cls-3" x="67.5" y="166.5" width="105" height="5"/><rect class="cls-3" x="67.5" y="105.5" width="105" height="5"/><polygon class="cls-4" points="79.5 110.5 70.5 110.5 67.5 166.5 82.5 166.5 79.5 110.5"/><polygon class="cls-4" points="108.5 110.5 99.5 110.5 96.5 166.5 111.5 166.5 108.5 110.5"/><polygon class="cls-4" points="139.5 110.5 130.5 110.5 127.5 166.5 142.5 166.5 139.5 110.5"/><polygon class="cls-4" points="169.5 110.5 160.5 110.5 157.5 166.5 172.5 166.5 169.5 110.5"/><polygon class="cls-4" points="120.1 53.5 56.7 91 183.5 91 120.1 53.5"/><polygon class="cls-3" points="120.1 60.83 75.3 87.33 164.9 87.33 120.1 60.83"/></g></g></svg>