<svg xmlns="http://www.w3.org/2000/svg" viewBox="0 0 240 240"><defs><style>.cls-1{fill:#4d4d4d;}.cls-2{fill:#1a1a1a;}.cls-3{fill:#999;}.cls-4{fill:#01a89e;}</style></defs><title>Intro_Romans</title><g id="Layer_2" data-name="Layer 2"><g id="Intro_Rome" data-name="Intro Rome"><circle class="cls-1" cx="119.53" cy="131.5" r="6"/><rect class="cls-1" x="113.53" y="137.5" width="12" height="18" rx="4.18" ry="4.18"/><circle class="cls-1" cx="139.53" cy="131.5" r="6"/><rect class="cls-1" x="133.53" y="137.5" width="12" height="18" rx="4.18" ry="4.18"/><path class="cls-2" d="M79.53,100.5v45s-6,1-6,5h11l7-36h16l6,6L120,114l6.5,6.5L133,114l6.5,6.5,7-7L163,130v16s-7-1-7,5h12l7-25-26-26Z"/><path class="cls-1" d="M73.53,82.5l-5-9-5,9L47,94s-8,4,0,7H79l15.5,15.5V146s-6.5,0-6.5,5h12l6-34,2-15h35s6.95.26,14,10c10.5,14.5,22,20,22,20v13s-7-1-7,6h10l8-22s-16-5-16-16V99s-1-16-14-16S73.53,82.5,73.53,82.5Z"/><rect class="cls-1" x="52.53" y="150.5" width="138" height="8"/><rect class="cls-3" x="47.53" y="158.5" width="149" height="8"/><path class="cls-4" d="M120,9a111,111,0,0,1,78.49,189.49,111,111,0,1,1-157-157A110.27,110.27,0,0,1,120,9m0-9A120,120,0,1,0,240,120,120,120,0,0,0,120,0Z"/></g></g></svg>