<svg xmlns="http://www.w3.org/2000/svg" viewBox="0 0 240 240"><defs><style>.cls-1{fill:#fff;}.cls-2{fill:#a84d4d;}.cls-3{fill:#4d4d4d;}.cls-4{fill:#1a1a1a;}.cls-5{fill:#999;}</style></defs><title>Intro_Romans2</title><g id="Layer_2" data-name="Layer 2"><g id="Intro_Rome" data-name="Intro Rome"><path class="cls-1" d="M120,235A115,115,0,1,1,235,120,115.13,115.13,0,0,1,120,235Z"/><path class="cls-2" d="M120,10a110,110,0,0,1,77.78,187.78A110,110,0,1,1,42.22,42.22,109.28,109.28,0,0,1,120,10m0-10A120,120,0,1,0,240,120,120,120,0,0,0,120,0Z"/><circle class="cls-3" cx="119.53" cy="131.5" r="6"/><rect class="cls-3" x="113.53" y="137.5" width="12" height="18" rx="4.18" ry="4.18"/><circle class="cls-3" cx="139.53" cy="131.5" r="6"/><rect class="cls-3" x="133.53" y="137.5" width="12" height="18" rx="4.18" ry="4.18"/><path class="cls-4" d="M79.53,100.5v45s-6,1-6,5h11l7-36h16l6,6L120,114l6.5,6.5L133,114l6.5,6.5,7-7L163,130v16s-7-1-7,5h12l7-25-26-26Z"/><path class="cls-3" d="M73.53,82.5l-5-9-5,9L47,94s-8,4,0,7H79l15.5,15.5V146s-6.5,0-6.5,5h12l6-34,2-15h35s6.95.26,14,10c10.5,14.5,22,20,22,20v13s-7-1-7,6h10l8-22s-16-5-16-16V99s-1-16-14-16S73.53,82.5,73.53,82.5Z"/><rect class="cls-3" x="52.53" y="150.5" width="138" height="8"/><rect class="cls-5" x="47.53" y="158.5" width="149" height="8"/></g></g></svg>