<svg xmlns="http://www.w3.org/2000/svg" viewBox="0 0 404.35 459.38"><defs><style>.cls-1{fill:#c1272d;}.cls-1,.cls-19{stroke:#9e005d;}.cls-1,.cls-14,.cls-16,.cls-19{stroke-miterlimit:10;}.cls-2{fill:#efd6c9;}.cls-3{fill:#e1b39c;}.cls-4{fill:#e9c7b6;}.cls-5{fill:#e6bfab;}.cls-6{fill:#754c24;}.cls-7{fill:#e2b59e;}.cls-8{fill:#cfd6cb;}.cls-9{fill:#e7c2af;}.cls-10{fill:#d79979;}.cls-11{fill:#e6e6e6;}.cls-12{fill:#eac9b8;}.cls-13{fill:#ecd0c1;}.cls-14,.cls-16{fill:none;}.cls-14{stroke:#d79979;}.cls-15{fill:#435e32;}.cls-16{stroke:#435e32;stroke-width:2px;}.cls-17{fill:#f2f2f2;}.cls-18{fill:#fbb03b;}.cls-19{fill:#93278f;}.cls-20{fill:#662d91;}.cls-21{font-size:12px;}.cls-21,.cls-22,.cls-23,.cls-24{font-family:MyriadPro-Regular, Myriad Pro;}.cls-22{font-size:24px;}.cls-23{font-size:30px;}.cls-24{font-size:38px;}</style></defs><title>Juilius_caesar</title><g id="Layer_2" data-name="Layer 2"><g id="Layer_1-2" data-name="Layer 1"><path class="cls-1" d="M131.62,236.78c-1.67-14.55,38-20.56,44.91-49.9,3.83-16.24-6.54-22-1.66-35.76,8.8-24.93,54.62-40.22,74.85-25.78,15.45,11,6.18,32.42,23.29,44.08,13.08,8.92,23.29-.33,48.24,3.33,31.14,4.56,61.64,25.76,59.88,39.92-1.61,13-29.29,11.26-36.59,31.6-4.49,12.51,4.14,18.31,5,38.26.78,18.28-5.07,46-23.29,59.05-16.56,11.86-27-.12-64.87,9.15-28.93,7.09-31,16.1-46.58,14.14-26.45-3.33-52.18-33.44-49.07-57.39,2.4-18.43,20.6-23.31,18.3-35.76C180.41,252.18,133.42,252.5,131.62,236.78Z"/><rect class="cls-2" x="187.05" y="148.9" width="12" height="46.99" rx="6" ry="6" transform="translate(365.45 -20.66) rotate(90)"/><rect class="cls-2" x="281" y="239.95" width="12" height="46.99" rx="6" ry="6"/><rect class="cls-3" x="13.62" y="312.42" width="19.25" height="8.92" rx="4.46" ry="4.46" transform="translate(230.88 76.38) rotate(45)"/><rect class="cls-4" x="10.3" y="315.74" width="19.25" height="8.92" rx="4.46" ry="4.46" transform="translate(232.25 79.7) rotate(45)"/><rect class="cls-5" x="6.98" y="319.06" width="19.25" height="8.92" rx="4.46" ry="4.46" transform="translate(233.63 83.02) rotate(45)"/><rect class="cls-2" x="9.28" y="326.95" width="56.81" height="25.35" rx="12.68" ry="12.68" transform="translate(251.19 72.83) rotate(45)"/><rect class="cls-2" x="3.65" y="322.38" width="19.25" height="8.92" rx="4.46" ry="4.46" transform="translate(235 86.34) rotate(45)"/><rect class="cls-2" x="75.71" y="289.48" width="11.27" height="76.06" transform="translate(255.41 38.41) rotate(45)"/><rect class="cls-6" x="-6.7" y="342.68" width="63.86" height="7.51" transform="translate(252.36 83.63) rotate(45)"/><rect class="cls-6" x="25.21" y="316.24" width="4.7" height="22.54" transform="translate(239.66 76.44) rotate(45)"/><rect class="cls-6" x="42.47" y="333.5" width="4.7" height="22.54" transform="translate(256.92 69.29) rotate(45)"/><rect class="cls-3" x="132.87" y="431.68" width="19.25" height="8.92" rx="4.46" ry="4.46" transform="translate(-65.14 845.3) rotate(-135)"/><rect class="cls-4" x="129.55" y="435" width="19.25" height="8.92" rx="4.46" ry="4.46" transform="translate(-73.16 848.62) rotate(-135)"/><rect class="cls-5" x="126.23" y="438.32" width="19.25" height="8.92" rx="4.46" ry="4.46" transform="translate(-81.17 851.94) rotate(-135)"/><rect class="cls-2" x="91.35" y="409.02" width="56.81" height="25.35" rx="12.68" ry="12.68" transform="translate(-93.75 804.56) rotate(-135)"/><rect class="cls-2" x="122.91" y="441.64" width="19.25" height="8.92" rx="4.46" ry="4.46" transform="translate(-89.19 855.26) rotate(-135)"/><rect class="cls-2" x="126.24" y="340.01" width="11.27" height="76.06" transform="translate(-42.19 738.6) rotate(-135)"/><rect class="cls-6" x="81.02" y="430.39" width="63.86" height="7.51" transform="translate(-114.18 821) rotate(-135)"/><rect class="cls-6" x="129.52" y="420.55" width="4.7" height="22.54" transform="translate(-80.23 830.42) rotate(-135)"/><rect class="cls-6" x="112.26" y="403.29" width="4.7" height="22.54" transform="translate(-97.49 788.74) rotate(-135)"/><path class="cls-2" d="M263.2,143.11l47.27,47.27a4.29,4.29,0,0,0,6.07,0l84.9-84.9a4.29,4.29,0,0,0,0-6.07L357.7,55.67a4.29,4.29,0,0,0-6.07,0l-72,72L263.2,137A4.29,4.29,0,0,0,263.2,143.11Z"/><path class="cls-7" d="M300.37,116.32l13.29-6.89a5.82,5.82,0,0,1,3.32-.62l23.18,2.58-25.78,25.78-14.89-15.58A3.34,3.34,0,0,1,300.37,116.32Z"/><rect class="cls-8" x="364.12" y="92.47" width="17.84" height="68.97" rx="8" ry="8" transform="translate(199.03 -226.59) rotate(45)"/><rect class="cls-8" x="348.37" y="130.47" width="9.03" height="20.79" transform="translate(202.97 -208.27) rotate(45)"/><circle class="cls-9" cx="369.25" cy="136" r="11.6" transform="translate(11.98 300.93) rotate(-45)"/><circle class="cls-10" cx="369.25" cy="136" r="5.16" transform="translate(11.98 300.93) rotate(-45)"/><rect class="cls-8" x="324.33" y="45.53" width="46.18" height="25.84" rx="12.92" ry="12.92" transform="translate(143.09 -228.54) rotate(45)"/><rect class="cls-11" x="340.47" y="56.91" width="36.65" height="25.84" rx="12.92" ry="12.92" transform="translate(154.47 -233.25) rotate(45)"/><rect class="cls-11" x="349.5" y="53.16" width="18.55" height="7.79" transform="translate(145.42 -236.98) rotate(45)"/><rect class="cls-11" x="349.54" y="78.72" width="18.55" height="7.79" transform="translate(163.51 -229.52) rotate(45)"/><rect class="cls-8" x="364.7" y="56.04" width="25.65" height="65.31" rx="12.82" ry="12.82" transform="translate(47.86 292.93) rotate(-45)"/><rect class="cls-8" x="382.68" y="99.45" width="12.98" height="19.69" transform="translate(36.7 307.2) rotate(-45)"/><rect class="cls-8" x="359.38" y="58.24" width="12.98" height="19.69" transform="translate(59.02 278.65) rotate(-45)"/><rect class="cls-11" x="327.25" y="83.73" width="20.62" height="4.12" rx="2.06" ry="2.06" transform="translate(515.59 385.15) rotate(-135)"/><rect class="cls-11" x="348.04" y="104.52" width="20.62" height="4.12" rx="2.06" ry="2.06" transform="translate(536.38 435.33) rotate(-135)"/><rect class="cls-12" x="296.76" y="130.4" width="15" height="14" transform="translate(-8.04 255.39) rotate(-45)"/><rect class="cls-7" x="283.22" y="139.08" width="23" height="3" transform="translate(185.72 -167.22) rotate(45)"/><path class="cls-12" d="M325.84,89.68a5.5,5.5,0,0,1,7.75,7.75Z"/><path class="cls-10" d="M329.36,88.91a5,5,0,0,1,4.17,7.76l-6.93-6.93a5,5,0,0,1,2.76-.83m0-1a6,6,0,0,0-4.24,1.76l8.49,8.49a6,6,0,0,0-4.24-10.24Z"/><path class="cls-13" d="M325.12,89.67a6,6,0,1,0,8.49,8.49Z"/><line class="cls-14" x1="325.12" y1="89.67" x2="333.61" y2="98.15"/><path class="cls-12" d="M347.06,110.9a5.5,5.5,0,0,1,7.75,7.75Z"/><path class="cls-10" d="M350.58,110.12a5,5,0,0,1,4.17,7.76L347.82,111a5,5,0,0,1,2.76-.83m0-1a6,6,0,0,0-4.24,1.76l8.49,8.49a6,6,0,0,0-4.24-10.24Z"/><path class="cls-13" d="M346.34,110.88a6,6,0,0,0,8.49,8.49Z"/><line class="cls-14" x1="346.34" y1="110.88" x2="354.82" y2="119.37"/><path class="cls-15" d="M385.2,112.51s-8.68,8.58-20.37-6.12C364.83,106.39,379.33,102.89,385.2,112.51Z"/><path class="cls-15" d="M386.14,113s-5.27-11,12.45-17.24C398.59,95.78,397.16,110.62,386.14,113Z"/><path class="cls-15" d="M359.23,71S347.72,67,355.85,50C355.85,50,365.33,61.53,359.23,71Z"/><path class="cls-15" d="M367.58,79.36s-10.71-5.86,0-21.26C367.6,58.1,375.11,71,367.58,79.36Z"/><path class="cls-15" d="M375.78,89.86s-9.87-7.18,2.75-21.09C378.53,68.77,384.33,82.51,375.78,89.86Z"/><path class="cls-15" d="M381.47,100.66S374,91,390,81.17C390,81.17,391.72,96,381.47,100.66Z"/><path class="cls-15" d="M358.62,71.62s-4.06-11.51-21-3.39C337.63,68.24,349.14,77.72,358.62,71.62Z"/><path class="cls-15" d="M367.45,79.49s-5.86-10.71-21.26,0C346.18,79.51,359.07,87,367.45,79.49Z"/><path class="cls-15" d="M375.06,89.8S370,78.71,353.84,88.36C353.84,88.36,366.18,96.74,375.06,89.8Z"/><path class="cls-15" d="M381.25,100.14s-4.81-11.22-21.17-2C360.08,98.14,372.19,106.84,381.25,100.14Z"/><path class="cls-15" d="M351.19,63.09s-11,5.27-17.24-12.45C333.95,50.64,348.79,52.07,351.19,63.09Z"/><path class="cls-16" d="M350.23,62.74s35.91,29.21,35.43,56.5"/><rect class="cls-2" x="272.87" y="162.93" width="14" height="26" transform="translate(206.38 -146.37) rotate(45)"/><polygon class="cls-17" points="299.47 213.92 244.71 159.16 69.8 303.86 154.77 388.83 299.47 213.92"/><rect class="cls-2" x="250.81" y="182.7" width="27" height="19" transform="translate(213.32 -130.6) rotate(45)"/><rect class="cls-18" x="251.35" y="171.74" width="4" height="19" transform="translate(202.36 -126.06) rotate(45)"/><rect class="cls-18" x="273.27" y="193.66" width="4" height="19" transform="translate(224.28 -135.14) rotate(45)"/><rect class="cls-18" x="254.18" y="182.83" width="4" height="35" transform="translate(-66.62 239.82) rotate(-45)"/><polygon class="cls-18" points="69.8 303.86 66.7 306.42 152.21 391.93 154.77 388.83 69.8 303.86"/><rect class="cls-17" x="209.95" y="150.54" width="26" height="43" transform="translate(394.99 -50.9) rotate(90)"/><rect class="cls-18" x="201.45" y="159.04" width="4" height="26"/><rect class="cls-17" x="273.58" y="214.18" width="26" height="43" transform="translate(573.17 471.37) rotate(-180)"/><rect class="cls-18" x="284.58" y="242.18" width="4" height="26" transform="translate(31.4 541.77) rotate(-90)"/><rect class="cls-2" x="170.07" y="98.1" width="11" height="80" rx="5" ry="5"/><rect class="cls-2" x="161.1" y="62.66" width="33.11" height="41.85" rx="16.55" ry="16.55" transform="translate(352.41 173.08) rotate(-178.08)"/><rect class="cls-9" x="180.92" y="80.23" width="23.69" height="6.97" rx="3.48" ry="3.48" transform="translate(-5.21 154.22) rotate(-43.08)"/><rect class="cls-13" x="187.88" y="58.11" width="6.97" height="23.69" rx="3.48" ry="3.48" transform="translate(380.27 146.29) rotate(-178.08)"/><rect class="cls-13" x="179.14" y="57.82" width="6.97" height="23.69" rx="3.48" ry="3.48" transform="translate(362.8 145.41) rotate(-178.08)"/><rect class="cls-13" x="170.4" y="57.53" width="6.97" height="23.69" rx="3.48" ry="3.48" transform="translate(345.33 144.53) rotate(-178.08)"/><rect class="cls-13" x="161.65" y="57.23" width="6.97" height="23.69" rx="3.48" ry="3.48" transform="translate(327.86 143.65) rotate(-178.08)"/><path class="cls-19" d="M278.32,192.77s-27.93,36.12-103,23.78L125,258.67s58.89,82.93,171.22-48Z"/><rect class="cls-2" x="247.2" y="240.93" width="11" height="80" rx="5" ry="5" transform="translate(-28.23 533.64) rotate(-90)"/><path class="cls-20" d="M225.58,275.67c-1.74,10.61-43.16,53.87-54.44,67a2.14,2.14,0,0,0,1.06,3.47l53,14.47a2.14,2.14,0,0,0,2.69-1.77c1.79-12.89,45.33-90,29-105.56a2.14,2.14,0,0,0-2.27-.44c-10.72,4.24-90,34.07-119-.24a2.14,2.14,0,0,0-3-.26l-6,5a2.15,2.15,0,0,0-.21,3.09c7.44,8.22,42.93,42.37,95.94,13.1A2.15,2.15,0,0,1,225.58,275.67Z"/><rect class="cls-9" x="194.83" y="251.9" width="6.97" height="23.69" rx="3.48" ry="3.48" transform="translate(-126.67 206.55) rotate(-43.08)"/><rect class="cls-2" x="181.07" y="253.3" width="6.97" height="23.69" rx="3.48" ry="3.48" transform="matrix(-0.03, 1, -1, -0.03, 455.73, 89.57)"/><rect class="cls-2" x="180.78" y="262.04" width="6.97" height="23.69" rx="3.48" ry="3.48" transform="translate(464.17 98.9) rotate(91.92)"/><rect class="cls-2" x="180.49" y="270.78" width="6.97" height="23.69" rx="3.48" ry="3.48" transform="translate(472.6 108.23) rotate(91.92)"/><rect class="cls-2" x="180.19" y="279.52" width="6.97" height="23.69" rx="3.48" ry="3.48" transform="translate(481.04 117.56) rotate(91.92)"/><rect class="cls-2" x="181.63" y="257.92" width="33.11" height="41.85" rx="16.55" ry="16.55" transform="translate(483.52 90.12) rotate(91.92)"/><path class="cls-1" d="M140.37,186.64c-.56-2.74,2.48-6.16,5-6,3.42.22,5.82,7,4,9S141.1,190.2,140.37,186.64Z"/><path class="cls-1" d="M345.37,173.64c-.56-2.74,2.48-6.16,5-6,3.42.22,5.82,7,4,9S346.1,177.2,345.37,173.64Z"/><path class="cls-1" d="M130.37,207.64c-2.7-3.5-1.42-8.65,2-11a7.53,7.53,0,1,1-2,11Z"/><path class="cls-1" d="M148.37,197.64c-.27-.67.92-2.28,2-2a1.63,1.63,0,0,1,1,2C150.91,198.54,148.67,198.37,148.37,197.64Z"/><path class="cls-1" d="M135.37,181.64c-.27-.67.92-2.28,2-2a1.63,1.63,0,0,1,1,2C137.91,182.54,135.67,182.37,135.37,181.64Z"/><path class="cls-1" d="M167.37,187.64c-.27-.67.92-2.28,2-2a1.63,1.63,0,0,1,1,2C169.91,188.54,167.67,188.37,167.37,187.64Z"/><path class="cls-1" d="M357.37,166.64c-.27-.67.92-2.28,2-2a1.63,1.63,0,0,1,1,2C359.91,167.54,357.67,167.37,357.37,166.64Z"/><path class="cls-1" d="M360.37,173.64c-.27-.67.92-2.28,2-2a1.63,1.63,0,0,1,1,2C362.91,174.54,360.67,174.37,360.37,173.64Z"/><path class="cls-1" d="M365.37,168.64c-.27-.67.92-2.28,2-2a1.63,1.63,0,0,1,1,2C367.91,169.54,365.67,169.37,365.37,168.64Z"/><path class="cls-1" d="M264.37,362.64c-.56-2.74,2.48-6.16,5-6,3.42.22,5.82,7,4,9S265.1,366.2,264.37,362.64Z"/><path class="cls-1" d="M254.37,383.64c-2.7-3.5-1.42-8.65,2-11a7.53,7.53,0,1,1-2,11Z"/><path class="cls-1" d="M272.37,373.64c-.27-.67.92-2.28,2-2a1.63,1.63,0,0,1,1,2C274.91,374.54,272.67,374.37,272.37,373.64Z"/><path class="cls-1" d="M364.37,239.64c-.56-2.74,2.48-6.16,5-6,3.42.22,5.82,7,4,9S365.1,243.2,364.37,239.64Z"/><path class="cls-1" d="M354.37,260.64c-2.7-3.5-1.42-8.65,2-11a7.53,7.53,0,1,1-2,11Z"/><path class="cls-1" d="M372.37,250.64c-.27-.67.92-2.28,2-2a1.63,1.63,0,0,1,1,2C374.91,251.54,372.67,251.37,372.37,250.64Z"/><text class="cls-21" transform="translate(277.54 93.81)">z</text><text class="cls-22" transform="translate(283.54 75.81)">z</text><text class="cls-23" transform="translate(270.54 57.81)">z</text><text class="cls-24" transform="translate(286.54 31.81)">z</text></g></g></svg>