<?xml version="1.0" encoding="UTF-8"?>
<svg width="60px" height="47px" viewBox="0 0 60 47" version="1.1" xmlns="http://www.w3.org/2000/svg" xmlns:xlink="http://www.w3.org/1999/xlink">
    <!-- Generator: Sketch 47.1 (45422) - http://www.bohemiancoding.com/sketch -->
    <title>Group 8</title>
    <desc>Created with Sketch.</desc>
    <defs>
        <polygon id="path-1" points="59.8431242 0.000534544185 0.000328483501 0.000534544185 0.000328483501 15.4734214 59.8431242 15.4734214 59.8431242 0.000534544185"></polygon>
    </defs>
    <g id="Page-1" stroke="none" stroke-width="1" fill="none" fill-rule="evenodd">
        <g id="Course-Name-page2-Desktop-Copy-3" transform="translate(-740.000000, -899.000000)">
            <g id="Group-8" transform="translate(740.000000, 899.000000)">
                <g id="Academic/Graduate">
                    <path d="M29.9215621,26.3383416 C29.1545531,26.3383416 28.3875441,26.2381542 27.6418866,26.0410641 L17.1336994,23.2374574 C15.3089736,22.7513018 14.1198633,21.0349755 14.3087413,19.1544075 L15.0823199,11.4071241 C15.1283076,10.9554593 15.5241302,10.631903 15.9823647,10.6713211 C16.4340295,10.7156663 16.762513,11.1180586 16.7165254,11.5697234 L15.9429467,19.3186492 C15.8345472,20.3911479 16.514508,21.3733135 17.5574431,21.6508821 L28.0656303,24.4544888 C29.2793768,24.7764026 30.5637473,24.7764026 31.7791363,24.4528463 L42.2873235,21.6508821 C43.3302586,21.3733135 44.008577,20.3911479 43.9018199,19.3186492 L43.1512351,11.8128012 C43.1052474,11.3611364 43.4353733,10.9587441 43.8853957,10.9127564 C44.3534847,10.8815505 44.7394528,11.1985371 44.7854405,11.6485595 L45.5360253,19.1544075 C45.7232609,21.0349755 44.5341506,22.7513018 42.7110672,23.2374574 L32.2012376,26.0394216 C31.45558,26.2381542 30.6885711,26.3383416 29.9215621,26.3383416" id="Fill-1" fill="#2A2A2A"></path>
                    <mask id="mask-2" fill="white">
                        <use xlink:href="#path-1"></use>
                    </mask>
                    <g id="Clip-4"></g>
                    <path d="M3.43265258,7.7359925 L29.197256,13.748883 C29.6702722,13.858925 30.1712095,13.858925 30.6458682,13.748883 L56.4104716,7.7359925 L30.6458682,1.72474444 C30.172852,1.61306005 29.6702722,1.61306005 29.1956135,1.72474444 L3.43265258,7.7359925 Z M30.8331038,14.5470979 L30.849528,14.5470979 L30.8331038,14.5470979 Z M29.9215621,15.4734214 C29.5520181,15.4734214 29.1824742,15.4323609 28.8227848,15.3469552 L0.862269189,8.82327289 C0.354762181,8.70501883 0.0016424175,8.25828127 0,7.73763492 C0,7.21698857 0.353119763,6.76860859 0.862269189,6.64871212 L28.8227848,0.125029791 C29.5421636,-0.0408543769 30.3009605,-0.0424967944 31.018697,0.125029791 L58.980855,6.64871212 C59.488362,6.76860859 59.8431242,7.21698857 59.8431242,7.73763492 C59.8414817,8.25828127 59.4867196,8.70501883 58.9792126,8.82327289 L31.0203394,15.3469552 L31.018697,15.3469552 C30.66065,15.4323609 30.291106,15.4734214 29.9215621,15.4734214 L29.9215621,15.4734214 Z" id="Fill-3" fill="#2A2A2A"></path>
                    <path d="M54.9851817,18.6539629 C54.5318744,18.6539629 54.1639729,18.2860613 54.1639729,17.8327541 L54.1639729,8.91278464 C54.1639729,8.457835 54.5318744,8.09157589 54.9851817,8.09157589 C55.4384889,8.09157589 55.8063904,8.457835 55.8063904,8.91278464 L55.8063904,17.8327541 C55.8063904,18.2860613 55.4384889,18.6539629 54.9851817,18.6539629" id="Fill-6" fill="#2A2A2A"></path>
                    <path d="M58.2836487,21.3590245 C58.2836487,23.1804655 56.8071154,24.6569988 54.9856744,24.6569988 C53.1642334,24.6569988 51.6860576,23.1804655 51.6860576,21.3590245 C51.6860576,19.5375835 53.1642334,18.0610501 54.9856744,18.0610501 C56.8071154,18.0610501 58.2836487,19.5375835 58.2836487,21.3590245" id="Fill-8"></path>
                    <path d="M54.9851817,18.8817662 C53.6186903,18.8817662 52.5084161,19.9936828 52.5084161,21.3585318 C52.5084161,22.7250231 53.6186903,23.8369398 54.9851817,23.8369398 C56.351673,23.8369398 57.4619473,22.7250231 57.4619473,21.3585318 C57.4619473,19.9936828 56.351673,18.8817662 54.9851817,18.8817662 M54.9851817,25.4793573 C52.7137183,25.4793573 50.8659986,23.6316376 50.8659986,21.3585318 C50.8659986,19.0870684 52.7137183,17.2393487 54.9851817,17.2393487 C57.2566451,17.2393487 59.1043648,19.0870684 59.1043648,21.3585318 C59.1043648,23.6316376 57.2566451,25.4793573 54.9851817,25.4793573" id="Fill-10" fill="#2A2A2A"></path>
                </g>
                <text id="Lecture" font-family="AvenirNext-Medium, Avenir Next" font-size="14" font-weight="400" letter-spacing="0.0381111093" fill="#2A2A2A">
                    <tspan x="6" y="46">Lecture</tspan>
                </text>
            </g>
        </g>
    </g>
</svg>