<?xml version="1.0" encoding="UTF-8"?>
<svg width="50px" height="60px" viewBox="0 0 50 60" version="1.1" xmlns="http://www.w3.org/2000/svg" xmlns:xlink="http://www.w3.org/1999/xlink">
    <!-- Generator: Sketch 47.1 (45422) - http://www.bohemiancoding.com/sketch -->
    <title>Group 11</title>
    <desc>Created with Sketch.</desc>
    <defs>
        <polygon id="path-1" points="49.5166559 20.7747361 49.5166559 0.449584507 0.212588026 0.449584507 0.212588026 20.7747361 0.212588026 41.0998877 49.5166559 41.0998877"></polygon>
    </defs>
    <g id="Page-1" stroke="none" stroke-width="1" fill="none" fill-rule="evenodd">
        <g id="Course-Name-page2-Desktop-Copy-3" transform="translate(-745.000000, -1282.000000)">
            <g id="Group-11" transform="translate(745.000000, 1282.000000)">
                <g id="Language">
                    <mask id="mask-2" fill="white">
                        <use xlink:href="#path-1"></use>
                    </mask>
                    <g id="Clip-2"></g>
                    <path d="M15.935755,2.22065507 C8.24245688,2.22065507 1.98401288,8.47909908 1.98401288,16.1723972 C1.98401288,23.8656953 8.24245688,30.1241394 15.935755,30.1241394 L35.2407431,30.1241394 C35.419657,30.1241394 35.595028,30.1772821 35.7420563,30.2800247 L47.7452311,38.5313217 L47.7452311,16.1723972 C47.7452311,8.47909908 41.4850157,2.22065507 33.7917175,2.22065507 L15.935755,2.22065507 Z M48.6309435,41.0998877 C48.453801,41.0998877 48.27843,41.0485164 48.1278589,40.9440023 L34.9661722,31.8955642 L15.935755,31.8955642 C7.26640179,31.8955642 0.212588026,24.8435219 0.212588026,16.1723972 C0.212588026,7.50127256 7.26640179,0.449230222 15.935755,0.449230222 L33.7917175,0.449230222 C42.4628422,0.449230222 49.5166559,7.50127256 49.5166559,16.1723972 L49.5166559,40.2141753 C49.5166559,40.5436603 49.3341992,40.846574 49.0419141,40.9989165 C48.9126001,41.0680021 48.7708861,41.0998877 48.6309435,41.0998877 L48.6309435,41.0998877 Z" id="Fill-1" fill="#2A2A2A" mask="url(#mask-2)"></path>
                    <path d="M25.9078141,16.8019616 C25.9078141,16.8019616 24.7599308,13.2006549 24.7280451,13.0996837 C24.7014738,13.1953406 24.673131,13.2909975 24.6465596,13.3831116 L23.5748476,16.8019616 L25.9078141,16.8019616 Z M30.5790614,26.3711987 C29.4701495,26.3711987 28.4976372,25.6626287 28.1610665,24.6068595 L27.2204399,21.66098 C27.1194687,21.3421235 26.8254122,21.1277811 26.4906129,21.1277811 L23.0434201,21.1277811 C22.7050779,21.1277811 22.4110214,21.3456664 22.3118216,21.6698371 L21.4314235,24.5732024 C21.1037099,25.6484573 20.1276548,26.3711987 19.0028,26.3711987 C18.1826303,26.3711987 17.435089,25.9921137 16.9532615,25.3296008 C16.4696625,24.6688594 16.3368056,23.8433754 16.5865765,23.062177 L21.4597663,7.85449468 C21.7981084,6.80049689 22.7688492,6.09192695 23.8759898,6.09192695 L25.7838143,6.09192695 C26.8856406,6.09192695 27.85461,6.79695404 28.196495,7.8420947 L33.1387703,23.0515485 C33.3920841,23.8327468 33.2609986,24.6617737 32.7773997,25.326058 C32.2938007,25.9903423 31.5462594,26.3711987 30.7243183,26.3711987 L30.5790614,26.3711987 Z" id="Fill-4" mask="url(#mask-2)"></path>
                    <path d="M25.7832829,5.20639166 L23.8754583,5.20639166 C22.3821472,5.20639166 21.0730642,6.16118966 20.6160366,7.58364382 L15.7446183,22.7913262 C15.4115904,23.8293811 15.5958186,24.9719502 16.2370744,25.8523483 C16.8801016,26.7327465 17.9146137,27.2588597 19.0022686,27.2588597 C20.5203797,27.2588597 21.8365483,26.2810331 22.2776331,24.8302362 L23.1332313,22.0136707 L26.4032816,22.0136707 L27.3173368,24.8762932 C27.772593,26.3005188 29.0834474,27.2588597 30.57853,27.2588597 L30.7255583,27.2588597 C31.816756,27.2588597 32.8512681,26.730975 33.4942953,25.847034 C34.1355511,24.963093 34.3180079,23.8169812 33.9796657,22.7789262 L29.0391618,7.57124384 C28.5785913,6.15587538 27.2712798,5.20639166 25.7832829,5.20639166 M22.3697472,17.6878512 L27.1207087,17.6878512 L25.6645974,13.129975 C25.3067696,12.0033488 25.0056274,10.7403229 24.7310566,9.66861087 L24.6761424,9.66861087 C24.4015715,10.7403229 24.1270007,12.0299202 23.7975157,13.129975 L22.3697472,17.6878512 M25.7832829,6.97781652 C26.4989386,6.97781652 27.1331087,7.43838698 27.3545368,8.11861412 L32.2950407,23.3262965 C32.6422399,24.3926942 31.8468702,25.4874348 30.7255583,25.4874348 L30.57853,25.4874348 C29.8593315,25.4874348 29.22339,25.0250929 29.0055047,24.3377801 L28.0648781,21.3919005 C27.8452214,20.7063591 27.2092799,20.2422458 26.4900814,20.2422458 L23.0446601,20.2422458 C22.3166045,20.2422458 21.6753487,20.7169877 21.4645491,21.4131576 L20.5823795,24.3147515 C20.37158,25.0126929 19.7303242,25.4874348 19.0022686,25.4874348 C17.8844995,25.4874348 17.0891297,24.3980085 17.4310147,23.3316108 L22.3042045,8.1239284 C22.5220898,7.44192983 23.1580313,6.97781652 23.8754583,6.97781652 L25.7832829,6.97781652" id="Fill-6" fill="#2A2A2A" mask="url(#mask-2)"></path>
                </g>
                <text id="Quiz" font-family="AvenirNext-Medium, Avenir Next" font-size="14" font-weight="400" letter-spacing="0.0381111093" fill="#2A2A2A">
                    <tspan x="10" y="59">Quiz</tspan>
                </text>
            </g>
        </g>
    </g>
</svg>