<svg xmlns="http://www.w3.org/2000/svg" viewBox="0 0 240 240"><defs><style>.cls-1{fill:red;}.cls-2,.cls-3,.cls-4{fill:none;}.cls-2{stroke:#e6e6e6;stroke-width:8px;}.cls-2,.cls-3,.cls-4,.cls-5,.cls-8{stroke-miterlimit:10;}.cls-3{stroke:#ccc;stroke-width:14px;}.cls-4{stroke:red;stroke-width:20px;}.cls-5,.cls-6{fill:#b3b3b3;}.cls-5{stroke:#b3b3b3;}.cls-7{fill:#fff;}.cls-8{fill:gray;stroke:gray;}.cls-9{fill:#01a89e;}</style></defs><title>Sparta</title><g id="Layer_2" data-name="Layer 2"><g id="Intro_Rome" data-name="Intro Rome"><path class="cls-1" d="M84.63,112h-20A69.5,69.5,0,0,1,175.37,56L163.49,72.14A49.51,49.51,0,0,0,84.63,112Z"/><path class="cls-2" d="M87.63,112a46.5,46.5,0,0,1,74.08-37.44"/><path class="cls-3" d="M98.13,111.92a36.42,36.42,0,0,1,58-29.32"/><line class="cls-4" x1="74.63" y1="111.5" x2="74.63" y2="141.5"/><line class="cls-2" x1="87.63" y1="111.5" x2="87.63" y2="141.5"/><path class="cls-5" d="M92.06,159.94s4.3,4.56,9.95,4.56h.07c4.2,0,8.62-2.57,13.12-7.55l.49-.54.58-.44c1.11-.85,7-5,14.05-2.79,3.48,1.07,8.2,4,10.89,12.11,3.06,9.19,13.93,19.32,25.41,24V113.5h-62v33Z"/><path class="cls-6" d="M167.12,114c0-.17,0-.33,0-.5a31.5,31.5,0,0,0-63,0c0,.17,0,.33,0,.5Z"/><path class="cls-7" d="M158.63,154.5v-22h-5v22c0,4.42,5.2,11,14,11v-5A9.39,9.39,0,0,1,158.63,154.5Z"/><path class="cls-7" d="M141.63,132.5a12,12,0,0,0,12,9v-9Z"/><path class="cls-8" d="M141.22,165c-2.69-8.07-7.41-11-10.89-12.11-7.07-2.17-12.95,1.94-14.05,2.79l-.58.44-.49.54c-4.51,5-8.92,7.52-13.12,7.55H102c-5.65,0-9.91-4.51-9.95-4.56L86.13,165s16,18,35-3c0,0,8.5-6.5,12.5,5.5s18,25,33,30l2.53-7.59C156.78,185.78,144.51,174.83,141.22,165Z"/><rect class="cls-8" x="104.13" y="114" width="63" height="6"/><path class="cls-9" d="M120,9a111,111,0,0,1,78.49,189.49,111,111,0,1,1-157-157A110.27,110.27,0,0,1,120,9m0-9A120,120,0,1,0,240,120,120,120,0,0,0,120,0Z"/></g></g></svg>