<svg xmlns="http://www.w3.org/2000/svg" viewBox="0 0 570.24 773.94"><defs><style>.cls-1{fill:#474e5e;}.cls-2{fill:#fff;}.cls-3{fill:#01a89e;}.cls-4{fill:#ccc;}.cls-5{fill:#e6e6e6;}</style></defs><title>Tablet_graphic</title><g id="Layer_2" data-name="Layer 2"><g id="Layer_1-2" data-name="Layer 1"><rect class="cls-1" width="570.24" height="773.94" rx="42.36" ry="42.36"/><rect class="cls-2" x="37.68" y="47" width="494.88" height="651" rx="7.02" ry="7.02"/><rect class="cls-3" x="36.87" y="46.75" width="496" height="54.24"/><rect class="cls-3" x="82.86" y="629.02" width="86" height="25"/><circle class="cls-4" cx="125.86" cy="493.02" r="61"/><rect class="cls-5" x="64.86" y="568.02" width="122" height="5" rx="2.28" ry="2.28"/><rect class="cls-5" x="64.86" y="579.02" width="122" height="5" rx="2.28" ry="2.28"/><rect class="cls-5" x="64.86" y="590.02" width="122" height="5" rx="2.28" ry="2.28"/><rect class="cls-5" x="64.86" y="601.02" width="122" height="5" rx="2.28" ry="2.28"/><rect class="cls-5" x="64.86" y="612.02" width="122" height="5" rx="2.28" ry="2.28"/><rect class="cls-5" x="384.86" y="568.02" width="122" height="5" rx="2.28" ry="2.28"/><rect class="cls-5" x="384.86" y="579.02" width="122" height="5" rx="2.28" ry="2.28"/><rect class="cls-5" x="384.86" y="590.02" width="122" height="5" rx="2.28" ry="2.28"/><rect class="cls-5" x="384.86" y="601.02" width="122" height="5" rx="2.28" ry="2.28"/><rect class="cls-5" x="384.86" y="612.02" width="122" height="5" rx="2.28" ry="2.28"/><rect class="cls-5" x="224.86" y="568.02" width="122" height="5" rx="2.28" ry="2.28"/><rect class="cls-5" x="224.86" y="579.02" width="122" height="5" rx="2.28" ry="2.28"/><rect class="cls-5" x="224.86" y="590.02" width="122" height="5" rx="2.28" ry="2.28"/><rect class="cls-5" x="224.86" y="601.02" width="122" height="5" rx="2.28" ry="2.28"/><rect class="cls-5" x="224.86" y="612.02" width="122" height="5" rx="2.28" ry="2.28"/><rect class="cls-3" x="402.86" y="629.02" width="86" height="25"/><circle class="cls-4" cx="445.86" cy="493.02" r="61"/><rect class="cls-3" x="242.86" y="629.02" width="86" height="25"/><circle class="cls-4" cx="285.86" cy="493.02" r="61"/><rect class="cls-5" x="63.86" y="134.02" width="442" height="256"/></g></g></svg>