<svg xmlns="http://www.w3.org/2000/svg" viewBox="0 0 240 240"><defs><style>.cls-1{fill:#fff;}.cls-2{fill:#e25b5b;}.cls-3{fill:#ccc;}.cls-4{fill:#e6e6e6;}.cls-5{fill:#603813;}.cls-6{fill:#b3b3b3;}.cls-7{fill:#8c6239;}.cls-8{fill:#bfbfbf;}</style></defs><title>Warefare</title><g id="Layer_2" data-name="Layer 2"><g id="Greek_states" data-name="Greek states"><path class="cls-1" d="M120,235A115,115,0,1,1,235,120,115.13,115.13,0,0,1,120,235Z"/><path class="cls-2" d="M120,10a110,110,0,0,1,77.78,187.78A110,110,0,1,1,42.22,42.22,109.28,109.28,0,0,1,120,10m0-10A120,120,0,1,0,240,120,120,120,0,0,0,120,0Z"/><path class="cls-3" d="M79.69,56.31s-30.46,19.43-40.79,17c0,0,6.34,20.61,19.24,29.76s29.08,16.67,46.29,14.24L98,107.17s-15.37-1.79-19.58-11.81-6-19.22,10.75-29Z"/><path class="cls-4" d="M46.5,72.65c-3,.81-5.66,1.13-7.6.68,0,0,6.34,20.61,19.24,29.76s29.08,16.67,46.29,14.24l-4.33-6.79h0c-11.72.65-24.41-3.81-37.8-13.31-8.13-5.77-13.89-18.49-16-24.52"/><polygon class="cls-5" points="195.1 186.07 187.88 192.03 74.17 52.34 79.46 47.97 195.1 186.07"/><rect class="cls-6" x="81.26" y="50.01" width="9.98" height="23.11" transform="translate(-19.46 69) rotate(-39.54)"/><rect class="cls-7" x="72" y="145.12" width="8.23" height="39.52" transform="translate(138.88 -5.53) rotate(45)"/><circle class="cls-3" cx="58.67" cy="182.33" r="7.41" transform="translate(-111.75 94.89) rotate(-45)"/><path class="cls-6" d="M85.44,155.56a15.64,15.64,0,0,0,22.12,0L85.44,133.44A15.64,15.64,0,0,0,85.44,155.56Z"/><polygon class="cls-3" points="161.13 69.39 126.78 104.91 91.26 139.26 96.5 144.5 186.75 54.26 161.13 69.39"/><polygon class="cls-8" points="171.61 79.87 186.75 54.26 96.5 144.5 101.74 149.74 136.09 114.22 171.61 79.87"/></g></g></svg>